<?xml version="1.0" standalone="no"?>
<!DOCTYPE svg PUBLIC "-//W3C//DTD SVG 1.1//EN" "http://www.w3.org/Graphics/SVG/1.1/DTD/svg11.dtd" >
<svg>
<metadata>
Created by FontForge 20120731 at Fri Jan 20 00:06:44 2017
 By www-data
Copyright (c) 1987 Adobe Systems Incorporated.
</metadata>
<defs>
<font id="prestigeeliteslanted" horiz-adv-x="600" >
  <font-face 
    font-family="Prestige Elite"
    font-weight="400"
    font-style="oblique"
    font-stretch="normal"
    units-per-em="1000"
    panose-1="2 0 5 9 0 0 0 0 0 0"
    ascent="800"
    descent="-200"
    x-height="408"
    cap-height="600"
    bbox="0 -288 718 1046"
    underline-thickness="36"
    underline-position="-72"
    slope="-12"
    stemh="36"
    stemv="72"
    unicode-range="U+0020-FB02"
  />
    <missing-glyph />
    <glyph glyph-name="space" unicode=" " 
 />
    <glyph glyph-name="exclam" unicode="!" 
d="M348 159h-30l54 408c5 26 31 45 57 45s44 -19 39 -45zM255 42c6 29 35 53 64 53c30 0 49 -24 43 -53c-6 -30 -36 -54 -66 -54c-29 0 -47 24 -41 54z" />
    <glyph glyph-name="quotedbl" unicode="&#x22;" 
d="M294 320h-40l10 178c2 22 4 58 8 76c3 15 33 38 64 38s51 -23 48 -38c-4 -18 -16 -54 -24 -76zM482 320h-40l10 178c2 22 4 58 8 76c3 15 33 38 64 38s51 -23 48 -38c-4 -18 -16 -54 -24 -76z" />
    <glyph glyph-name="numbersign" unicode="#" 
d="M267 805h44l-162 -901h-45l61 335h-134l8 44h134l28 157h-134l8 44h134zM329 -96h-45l165 901h44l-58 -321h135l-9 -44h-134l-28 -157h134l-8 -44h-134z" />
    <glyph glyph-name="dollar" unicode="$" 
d="M411 604l23 105h39l-23 -105c54 2 106 -11 133 -52c-7 -15 -11 -30 -13 -45l-10 -65h-39l5 22c16 77 0 104 -82 104c-71 0 -156 -35 -174 -120c-30 -141 294 -91 255 -275c-19 -90 -114 -154 -200 -159l-29 -134h-39l29 134c-56 4 -108 20 -159 35l16 54c5 25 8 51 6 76
h40c-3 -26 -8 -60 4 -82c17 -35 82 -47 121 -47c72 0 152 42 168 121c34 157 -291 101 -255 273c18 83 103 149 184 160z" />
    <glyph glyph-name="percent" unicode="%" 
d="M280 612c71 0 77 -72 64 -131c-12 -59 -49 -131 -120 -131s-76 73 -64 131c13 59 49 131 120 131zM274 584c-53 0 -70 -63 -79 -103c-8 -39 -18 -103 35 -103s71 63 79 103c9 40 18 103 -35 103zM558 629l23 -16l-411 -640l-23 16zM503 250c71 0 77 -72 64 -131
c-12 -59 -49 -131 -120 -131s-76 73 -64 131c13 59 49 131 120 131zM497 222c-53 0 -70 -63 -79 -103c-8 -39 -18 -103 35 -103s71 63 79 103c9 40 18 103 -35 103z" />
    <glyph glyph-name="ampersand" unicode="&#x26;" 
d="M365 239l-49 90c-75 -23 -121 -83 -136 -155c-16 -75 11 -150 94 -150c49 0 93 25 132 62l-7 33c-9 43 -14 83 -34 120zM508 556l-35 -30c-15 26 -34 50 -68 50c-42 0 -82 -33 -90 -74c-11 -51 11 -102 33 -140l25 -45c34 -60 58 -122 67 -194c35 53 55 112 69 169h85
l-8 -36h-51c-11 -48 -38 -118 -86 -175c4 -17 12 -48 33 -48c19 0 31 25 38 40l24 -16c-12 -32 -34 -60 -70 -60c-35 0 -48 25 -59 53c-43 -42 -102 -62 -155 -62c-98 0 -142 91 -123 183c18 84 77 156 163 186c-22 41 -38 94 -27 146c14 65 81 109 143 109
c42 0 74 -23 92 -56z" />
    <glyph glyph-name="quoteright" unicode="&#x2019;" 
d="M329 412l8 38c28 8 63 24 80 52c-7 -2 -12 -3 -17 -3c-31 0 -50 21 -44 53c8 34 37 60 72 60c39 0 55 -37 48 -72c-14 -64 -88 -113 -147 -128z" />
    <glyph glyph-name="parenleft" unicode="(" 
d="M443 -79l-31 -30c-112 101 -134 244 -99 409c35 164 118 307 273 409l18 -31c-145 -86 -218 -232 -249 -378c-31 -147 -21 -293 88 -379z" />
    <glyph glyph-name="parenright" unicode=")" 
d="M284 679l32 30c111 -101 134 -244 99 -409c-35 -164 -118 -307 -273 -409l-19 31c146 86 219 232 250 378c31 147 20 293 -89 379z" />
    <glyph glyph-name="asterisk" unicode="*" 
d="M287 341c-12 12 -7 31 7 47c19 19 55 40 75 52c-4 7 -7 13 -6 21c-21 0 -60 -1 -80 6c-18 6 -26 21 -17 40c10 17 30 23 47 17c21 -7 46 -31 60 -44c6 7 14 13 24 17c-3 20 -8 56 -4 79c5 20 19 36 38 36s27 -16 22 -36c-4 -23 -26 -59 -36 -79c7 -4 12 -10 13 -17
c20 13 55 37 78 44c21 6 38 0 41 -18c1 -18 -13 -33 -34 -39c-23 -7 -61 -6 -83 -6c-1 -7 -7 -14 -12 -19c14 -12 42 -33 51 -52c8 -16 5 -35 -13 -47c-17 -11 -34 -4 -43 12c-10 19 -12 55 -13 76c-6 -3 -14 -3 -20 -2c-10 -21 -29 -58 -46 -76c-15 -16 -35 -23 -49 -12z
" />
    <glyph glyph-name="plus" unicode="+" 
d="M566 382v-44h-244v-244h-44v244h-244v44h244v244h44v-244h244z" />
    <glyph glyph-name="comma" unicode="," 
d="M221 -92l9 38c28 8 63 24 80 52c-7 -2 -12 -3 -17 -3c-31 0 -51 21 -44 53c7 34 37 60 72 60c39 0 55 -37 48 -72c-14 -64 -88 -113 -148 -128z" />
    <glyph glyph-name="hyphen" unicode="-" 
d="M480 282h-240l8 36h240z" />
    <glyph glyph-name="period" unicode="." 
d="M249 49c7 33 41 61 74 61s55 -28 48 -61s-41 -61 -74 -61s-55 28 -48 61z" />
    <glyph glyph-name="slash" unicode="/" 
d="M175 -27h-46l296 774h46z" />
    <glyph glyph-name="zero" unicode="0" 
d="M430 612c95 0 183 -76 133 -312s-171 -312 -266 -312s-182 76 -132 312s170 312 265 312zM521 300c44 206 -18 276 -99 276s-171 -70 -215 -276s17 -276 98 -276s172 70 216 276z" />
    <glyph glyph-name="one" unicode="1" 
d="M446 573l-114 -537h137l-8 -36h-323l8 36h147l108 512c-29 -6 -89 -14 -139 -15l2 35c48 1 124 6 150 31c8 7 14 13 25 13c14 0 10 -25 7 -39z" />
    <glyph glyph-name="two" unicode="2" 
d="M475 102l33 -8l-64 -94h-330l9 42l236 208c62 54 134 134 150 210c11 52 -19 116 -99 116c-41 0 -82 -15 -114 -56c-7 -29 -24 -67 -53 -67c-13 0 -16 11 -14 22c18 84 114 137 190 137c87 0 151 -60 132 -151c-16 -77 -73 -147 -135 -203l-192 -173l-58 -49h261z" />
    <glyph glyph-name="three" unicode="3" 
d="M345 308h-40l8 36h25c74 0 134 28 151 106c20 95 -41 126 -94 126c-30 0 -61 -10 -87 -30c-6 -25 -34 -70 -64 -70c-13 0 -15 12 -13 24c13 58 103 112 181 112c90 0 138 -69 120 -157c-12 -53 -48 -104 -103 -126c64 -27 89 -85 73 -160c-24 -113 -128 -181 -236 -181
c-59 0 -125 12 -169 42l23 32c39 -25 97 -38 148 -38c88 0 171 46 191 142c19 89 -24 142 -114 142z" />
    <glyph glyph-name="four" unicode="4" 
d="M477 414h39l-46 -216h88l-8 -36h-88l-26 -126h88l-8 -36h-229l8 36h102l26 126h-300l9 42c112 139 221 283 295 441l37 -12c-76 -156 -187 -298 -300 -435h267z" />
    <glyph glyph-name="five" unicode="5" 
d="M559 600l-8 -36h-235l-50 -167c25 5 51 11 75 11c119 0 188 -74 162 -197c-29 -136 -154 -223 -285 -223c-48 0 -89 9 -129 26l17 34c37 -16 73 -24 117 -24c111 0 213 69 237 184c21 97 -29 164 -126 164c-38 0 -78 -9 -116 -20l72 248h269z" />
    <glyph glyph-name="six" unicode="6" 
d="M546 612l-8 -36c-159 3 -281 -131 -321 -277l1 -2c42 53 111 87 171 87c109 0 161 -95 140 -198c-22 -103 -116 -198 -225 -198c-74 0 -187 45 -142 256c41 193 170 366 384 368zM196 194c-17 -83 20 -170 116 -170c82 0 157 79 175 162c17 83 -24 162 -106 162
c-86 0 -166 -67 -185 -154z" />
    <glyph glyph-name="seven" unicode="7" 
d="M242 600h356l-380 -612h-43l361 576h-302z" />
    <glyph glyph-name="eight" unicode="8" 
d="M362 294c-74 0 -163 -47 -182 -132c-17 -81 50 -138 125 -138s166 57 183 138c19 85 -52 132 -126 132zM297 -12c-104 0 -180 73 -159 170c18 85 95 143 178 158c-60 27 -105 83 -89 159c19 89 114 137 203 137s164 -48 145 -137c-16 -76 -85 -132 -157 -159
c77 -15 130 -73 112 -158c-21 -97 -129 -170 -233 -170zM422 576c-63 0 -138 -29 -153 -102c-16 -73 21 -103 101 -143c98 40 147 70 163 143c15 73 -48 102 -111 102z" />
    <glyph glyph-name="nine" unicode="9" 
d="M151 -12l8 36h47c149 0 270 143 306 280l-2 2c-41 -51 -111 -88 -172 -88c-106 0 -162 87 -140 191c23 107 115 203 228 203c77 0 181 -55 139 -254c-39 -182 -169 -370 -375 -370h-39zM529 405c18 82 -20 171 -109 171c-87 0 -162 -80 -179 -161s18 -161 105 -161
c95 0 169 86 183 151z" />
    <glyph glyph-name="colon" unicode=":" 
d="M249 49c7 33 41 61 74 61s55 -28 48 -61s-41 -61 -74 -61s-55 28 -48 61zM315 359c7 33 41 61 74 61s55 -28 48 -61s-41 -61 -74 -61s-55 28 -48 61z" />
    <glyph glyph-name="semicolon" unicode=";" 
d="M231 -92l9 38c28 8 63 24 80 52c-7 -2 -12 -3 -17 -3c-31 0 -51 21 -44 53c7 34 37 60 72 60c39 0 55 -37 48 -72c-14 -64 -88 -113 -148 -128zM325 359c7 33 41 61 74 61s55 -28 48 -61s-41 -61 -74 -61s-55 28 -48 61z" />
    <glyph glyph-name="less" unicode="&#x3c;" 
d="M98 360l379 360l25 -32l-340 -328l340 -328l-25 -32z" />
    <glyph glyph-name="equal" unicode="=" 
d="M566 449v-44h-532v44h532zM566 315v-44h-532v44h532z" />
    <glyph glyph-name="greater" unicode="&#x3e;" 
d="M123 720l379 -360l-379 -360l-25 32l340 328l-340 328z" />
    <glyph glyph-name="question" unicode="?" 
d="M322 159h-37l4 19c32 149 170 186 193 291c12 58 -18 107 -77 107c-56 0 -112 -35 -131 -92c2 -10 2 -20 -1 -31c-3 -14 -14 -33 -30 -33c-25 0 -21 28 -17 47c17 77 95 145 187 145c75 0 129 -58 112 -135c-14 -68 -58 -110 -110 -159c-60 -55 -79 -84 -93 -159zM225 42
c6 29 35 53 64 53c30 0 49 -24 43 -53c-6 -30 -36 -54 -66 -54c-29 0 -47 24 -41 54z" />
    <glyph glyph-name="at" unicode="@" 
d="M506 91l7 -37c-70 -37 -146 -66 -236 -66c-142 0 -215 103 -181 260c34 162 168 364 355 364c128 0 214 -99 182 -251c-17 -78 -79 -207 -177 -207c-34 0 -62 19 -66 53c-27 -30 -64 -53 -102 -53c-45 0 -67 33 -58 77c10 46 39 111 96 155c46 35 97 40 150 40h23
l-54 -140c-27 -68 -17 -96 18 -96c72 0 115 111 127 169c27 126 -34 217 -151 217c-84 0 -252 -94 -301 -329c-30 -137 30 -223 153 -223c73 0 145 28 215 67zM434 357l11 31c-24 -2 -64 -6 -85 -19c-56 -35 -79 -95 -87 -133c-5 -23 3 -46 27 -46c32 0 68 37 86 64
c23 31 35 70 48 103z" />
    <glyph glyph-name="A" unicode="A" 
d="M437 663l98 -627h48l-8 -36h-183l8 36h93l-24 156h-261l-87 -156h93l-8 -36h-181l8 36h48zM464 228l-50 332l-186 -332h236z" />
    <glyph glyph-name="B" unicode="B" 
d="M263 306l-55 -258h38l100 -12c82 -9 150 35 170 127c15 71 -13 143 -152 143h-101zM63 0v36l106 12l107 504l-103 12l8 36c33 -4 65 -12 99 -12c32 0 131 12 174 12c76 0 135 -47 117 -128c-13 -62 -67 -116 -128 -139c87 -18 135 -76 114 -172
c-21 -99 -102 -161 -197 -161c-41 0 -120 12 -155 12c-55 0 -104 -8 -142 -12zM315 552l-44 -210h51c135 0 193 64 206 126c14 64 -26 99 -86 99c-41 0 -85 -11 -127 -15z" />
    <glyph glyph-name="C" unicode="C" 
d="M596 571l20 38l33 -12c-19 -32 -28 -67 -36 -101l-11 -70l-38 -6c17 97 -7 156 -112 156c-149 0 -233 -149 -260 -274c-26 -123 -4 -278 142 -278c104 0 169 68 190 168h39l-25 -117c-64 -53 -140 -87 -215 -87c-105 0 -222 83 -172 318c49 231 201 306 307 306
c51 0 100 -15 138 -41z" />
    <glyph glyph-name="D" unicode="D" 
d="M143 48l107 504l-78 12l12 36c25 -4 49 -12 83 -12c39 0 84 12 134 12c175 0 221 -137 184 -311c-51 -240 -198 -289 -305 -289c-44 0 -85 12 -129 12c-31 0 -63 -8 -95 -12l2 36zM289 552l-107 -504l104 -12c109 -13 217 64 254 237c48 227 -44 307 -163 291z" />
    <glyph glyph-name="E" unicode="E" 
d="M527 0h-480l8 36h103l112 528h-103l8 36h462l-34 -158h-39l3 15c19 91 15 107 -74 107h-184l-46 -218h164l18 87h39l-47 -221h-39l21 98h-164l-58 -274h180c115 0 123 22 144 121l5 23h39z" />
    <glyph glyph-name="F" unicode="F" 
d="M190 600h459l-34 -158h-39l3 15c19 89 14 107 -74 107h-184l-50 -234h164l19 87h39l-47 -221h-39l20 98h-164l-54 -258h180l-8 -36h-319l8 36h100l112 528h-100z" />
    <glyph glyph-name="G" unicode="G" 
d="M584 567l24 43l29 -9c-16 -32 -27 -65 -34 -98l-10 -79l-41 -6c3 28 6 57 1 84c-10 54 -61 74 -116 74c-78 0 -216 -51 -262 -265c-44 -209 50 -287 133 -287c50 0 123 20 163 61c27 26 32 69 38 100l6 27h-136l8 36h237l-8 -36h-62l-29 -137c-66 -52 -146 -87 -223 -87
c-94 0 -220 81 -171 312c48 229 198 312 314 312c52 0 101 -17 139 -45z" />
    <glyph glyph-name="H" unicode="H" 
d="M167 600h209l-8 -36h-85l-51 -238h274l51 238h-85l8 36h209l-8 -36h-85l-112 -528h85l-8 -36h-209l8 36h85l54 254h-274l-54 -254h85l-8 -36h-209l8 36h85l112 528h-85z" />
    <glyph glyph-name="I" unicode="I" 
d="M245 600h366l-8 -36h-163l-112 -528h163l-8 -36h-366l8 36h164l112 528h-164z" />
    <glyph glyph-name="J" unicode="J" 
d="M391 600h270l-8 -36h-103l-92 -430c-21 -102 -75 -146 -188 -146c-70 0 -130 16 -183 52l31 147h39l-5 -21c-7 -32 -17 -73 -1 -98c22 -33 85 -44 127 -44c96 0 127 42 147 134l86 406h-128z" />
    <glyph glyph-name="K" unicode="K" 
d="M168 600h204l-8 -36h-82l-54 -252c53 3 119 50 162 85c61 49 116 107 165 167h-83l8 36h204l-8 -36h-78c-74 -92 -156 -181 -257 -244l166 -284h85l-8 -36h-210l8 36h73l-154 264c-26 -13 -54 -21 -80 -23l-51 -241h82l-8 -36h-204l8 36h83l112 528h-83z" />
    <glyph glyph-name="L" unicode="L" 
d="M179 600h265l-8 -36h-115l-112 -528h202c67 0 100 38 109 81l17 79h39l-42 -196h-483l8 36h111l112 528h-111z" />
    <glyph glyph-name="M" unicode="M" 
d="M622 564l-112 -528h72l-8 -36h-195l8 36h84l107 507h-2l-237 -358l-85 358h-2l-107 -507h84l-8 -36h-195l8 36h72l112 528h-72l8 36h126l78 -327l218 327h126l-8 -36h-72z" />
    <glyph glyph-name="N" unicode="N" 
d="M623 564l-120 -564h-46l-193 543h-2l-107 -507h94l-8 -36h-209l8 36h76l112 528h-76l8 36h127l189 -536h2l106 500h-97l8 36h200l-8 -36h-64z" />
    <glyph glyph-name="O" unicode="O" 
d="M297 -12c-102 0 -216 78 -166 312s197 312 299 312s217 -78 167 -312s-198 -312 -300 -312zM305 24c91 0 206 72 250 276c43 204 -42 276 -133 276s-206 -72 -249 -276c-44 -204 41 -276 132 -276z" />
    <glyph glyph-name="P" unicode="P" 
d="M260 268l-49 -232h153l-8 -36h-277l8 36h85l111 522l-84 6l8 37l93 -4c53 -2 110 6 164 6c107 0 168 -52 145 -159c-24 -115 -114 -176 -280 -176h-69zM322 559l-54 -255h76c124 0 203 42 224 143c18 84 -32 125 -111 120z" />
    <glyph glyph-name="Q" unicode="Q" 
d="M448 39l43 -93h69l-8 -36h-94l-48 106c-30 -15 -73 -28 -113 -28c-102 0 -216 78 -166 312s197 312 299 312s217 -78 167 -312c-20 -91 -64 -199 -149 -261zM397 47l-57 128l35 24l58 -127c69 56 106 156 122 228c43 204 -42 276 -133 276s-206 -72 -249 -276
c-44 -204 41 -276 132 -276c33 0 63 8 92 23z" />
    <glyph glyph-name="R" unicode="R" 
d="M579 36l-8 -36h-94l-124 282h-119l-52 -246h97l-8 -36h-221l8 36h85l111 522l-84 6l8 37l93 -4c53 -2 110 6 164 6c79 0 156 -46 134 -153c-19 -89 -88 -143 -175 -161l116 -253h69zM293 560l-51 -242h54c94 0 205 13 231 132c17 80 -43 117 -115 117
c-37 0 -96 -6 -119 -7z" />
    <glyph glyph-name="S" unicode="S" 
d="M525 152c-21 -101 -119 -164 -227 -164c-53 0 -107 14 -142 47l-15 -47l-35 5l30 101c8 28 9 56 9 83l38 5l-3 -37c-6 -73 17 -121 131 -121c66 0 152 34 171 121c42 198 -310 91 -263 310c22 104 129 157 223 157c43 0 87 -11 119 -34l16 46l36 -7l-28 -95
c-8 -28 -7 -55 -10 -83l-39 -5c4 29 12 63 4 89c-13 40 -57 53 -99 53c-72 0 -161 -32 -179 -116c-38 -180 311 -85 263 -308z" />
    <glyph glyph-name="T" unicode="T" 
d="M454 0h-309l8 36h135l112 528h-95c-77 0 -91 -15 -108 -92l-14 -69h-39l42 197h483l-42 -197h-39l14 69c17 77 9 92 -68 92h-95l-112 -528h135z" />
    <glyph glyph-name="U" unicode="U" 
d="M494 600h184l-8 -36h-70l-83 -392c-29 -133 -100 -184 -220 -184s-169 51 -140 184l83 392h-70l8 36h184l-8 -36h-75l-81 -380c-25 -117 10 -160 107 -160s150 43 175 160l81 380h-75z" />
    <glyph glyph-name="V" unicode="V" 
d="M162 600h189l-8 -36h-87l50 -537l278 537h-88l8 36h190l-8 -36h-63l-297 -576h-58l-51 576h-63z" />
    <glyph glyph-name="W" unicode="W" 
d="M156 600h160l-8 -36h-80l-38 -510h2l191 336l47 -336h2l180 510h-80l8 36h160l-8 -36h-42l-205 -576h-42l-43 295l-169 -295h-42l41 576h-42z" />
    <glyph glyph-name="X" unicode="X" 
d="M372 339l190 225h-82l8 36h180l-8 -36h-56l-215 -254l123 -274h60l-8 -36h-204l8 36h99l-108 242l-210 -242h99l-8 -36h-204l8 36h60l239 274l-107 254h-56l8 36h180l-8 -36h-82z" />
    <glyph glyph-name="Y" unicode="Y" 
d="M166 600h192l-8 -36h-91l105 -267l219 267h-93l8 36h192l-8 -36h-58l-249 -303l-47 -225h134l-8 -36h-307l8 36h134l47 225l-119 303h-59z" />
    <glyph glyph-name="Z" unicode="Z" 
d="M223 600h386l-8 -36l-466 -528h231c115 0 124 22 148 133l2 11h39l-38 -180h-434l8 36l467 528h-184c-115 0 -125 -22 -148 -133l-3 -11h-39z" />
    <glyph glyph-name="bracketleft" unicode="[" 
d="M632 709l-8 -36h-149l-159 -746h149l-7 -36h-188l174 818h188z" />
    <glyph glyph-name="backslash" unicode="\" 
d="M425 -27l-296 774h46l296 -774h-46z" />
    <glyph glyph-name="bracketright" unicode="]" 
d="M262 673l8 36h188l-174 -818h-188l7 36h149l159 746h-149z" />
    <glyph glyph-name="asciicircum" unicode="^" 
d="M160 357h-50l164 323h52l161 -323h-50l-137 275z" />
    <glyph glyph-name="underscore" unicode="_" 
d="M600 -108h-600v36h600v-36z" />
    <glyph glyph-name="quoteleft" unicode="&#x2018;" 
d="M489 612l-8 -38c-29 -8 -63 -24 -80 -52c6 2 12 3 17 3c31 0 50 -21 43 -53c-7 -34 -36 -60 -71 -60c-39 0 -56 37 -48 72c13 64 88 113 147 128z" />
    <glyph glyph-name="a" unicode="a" 
d="M409 0l8 38c-70 -29 -137 -50 -209 -50c-68 0 -124 31 -108 108c20 91 116 139 360 142l12 57c12 59 14 89 -68 89c-53 0 -111 -16 -161 -46l-12 -56h-39l18 83c63 33 137 55 201 55c98 0 121 -27 101 -119l-56 -265h85l-8 -36h-124zM426 79l26 123
c-237 -8 -297 -46 -310 -106c-11 -55 29 -72 77 -72c68 0 140 26 207 55z" />
    <glyph glyph-name="b" unicode="b" 
d="M245 333l-55 -258c22 -35 65 -51 110 -51c106 0 183 77 205 179c21 97 -14 181 -119 181c-47 0 -100 -20 -141 -51zM305 617l-51 -239c45 26 99 42 145 42c120 0 175 -93 149 -211c-26 -123 -125 -221 -253 -221c-44 0 -91 16 -118 46c-7 -21 -24 -40 -41 -57l-28 16
c30 32 34 39 42 77l111 522c-29 -6 -62 -14 -98 -16l2 36c34 1 82 6 109 31c7 7 13 13 24 13c14 0 10 -25 7 -39z" />
    <glyph glyph-name="c" unicode="c" 
d="M499 65l6 -33c-58 -28 -133 -44 -193 -44c-125 0 -203 83 -175 212c27 128 139 220 267 220c52 0 115 -16 130 -65l-19 -91h-36l4 18c15 73 -19 102 -90 102c-104 0 -192 -76 -213 -178c-23 -107 35 -182 142 -182c55 0 122 16 177 41z" />
    <glyph glyph-name="d" unicode="d" 
d="M409 67l60 281c-28 22 -63 36 -102 36c-94 0 -184 -72 -207 -180c-19 -91 21 -180 119 -180c45 0 90 16 130 43zM395 0l6 27c-39 -24 -94 -39 -134 -39c-115 0 -173 102 -149 213c24 116 126 219 248 219c43 0 78 -10 112 -29l43 201c-29 -6 -62 -14 -98 -16l2 36
c34 1 82 6 109 31c7 7 13 13 24 13c14 0 10 -25 7 -39l-123 -581h80l-8 -36h-119z" />
    <glyph glyph-name="e" unicode="e" 
d="M544 186h-368c-20 -112 55 -162 162 -162c64 0 122 18 191 44l6 -32c-71 -31 -148 -48 -219 -48c-123 0 -208 76 -181 206c27 124 138 226 265 226c121 0 180 -78 154 -198zM186 222h327c25 95 -31 162 -120 162s-179 -69 -207 -162z" />
    <glyph glyph-name="f" unicode="f" 
d="M679 569l-34 -33c-42 31 -97 52 -156 52c-97 0 -106 -85 -121 -156l-5 -24h202l-8 -36h-202l-71 -336h180l-8 -36h-339l8 36h120l71 336h-151l8 36h151l5 24c17 80 32 192 164 192c69 0 136 -18 186 -55z" />
    <glyph glyph-name="g" unicode="g" 
d="M265 -180c67 0 207 17 227 108c13 64 -33 70 -85 70h-176c-44 -23 -93 -51 -104 -101c-15 -71 86 -77 138 -77zM445 408h119l-8 -36h-66c19 -33 26 -66 17 -108c-20 -95 -96 -150 -188 -150c-13 0 -25 1 -36 4c-19 -10 -70 -44 -75 -64c-3 -16 51 -16 65 -16h137
c86 0 141 -29 125 -103c-26 -123 -175 -151 -272 -151c-74 0 -200 9 -179 110c11 50 58 91 105 113c-16 4 -29 16 -25 35c7 35 53 68 84 87c-53 21 -77 73 -64 135c19 88 100 156 198 156c22 0 43 -4 63 -12zM465 264c15 69 -20 120 -89 120c-66 0 -134 -46 -149 -115
c-16 -76 28 -119 102 -119c75 0 122 49 136 114z" />
    <glyph glyph-name="h" unicode="h" 
d="M303 617l-54 -255c58 28 129 58 188 58c87 0 122 -39 95 -167l-46 -217h70l-8 -36h-187l8 36h78l43 204c15 69 31 144 -61 144c-63 0 -130 -31 -189 -64l-60 -284h78l-8 -36h-187l8 36h70l118 556c-29 -6 -62 -14 -98 -16l2 36c34 1 82 6 109 31c7 7 13 13 24 13
c14 0 10 -25 7 -39z" />
    <glyph glyph-name="i" unicode="i" 
d="M89 0l8 36h203l71 338c-29 -6 -121 -14 -196 -16l2 36c73 1 181 6 207 31c8 7 14 13 25 13c14 0 10 -25 7 -39l-77 -363h180l-8 -36h-422zM474 558c-7 -30 -36 -54 -66 -54s-49 24 -42 54c6 30 35 54 65 54s49 -24 43 -54z" />
    <glyph glyph-name="j" unicode="j" 
d="M476 386l-84 -394c-20 -96 -36 -208 -168 -208c-69 0 -135 18 -186 55l34 33c42 -31 97 -52 156 -52c94 0 106 79 120 149l86 405c-42 -14 -88 -19 -128 -16l-67 4l1 35l77 -4c34 -2 99 3 130 32c7 6 13 12 22 12c23 0 10 -37 7 -51zM549 558c-7 -30 -36 -54 -66 -54
s-49 24 -42 54c6 30 35 54 65 54s49 -24 43 -54z" />
    <glyph glyph-name="k" unicode="k" 
d="M320 617l-94 -443l253 198h-58l8 36h175l-8 -36h-67l-152 -123l124 -213h73l-8 -36h-176l8 36h57l-110 189l-128 -94l-20 -95h77l-8 -36h-214l8 36h98l118 556c-29 -6 -62 -14 -98 -16l2 36c34 1 82 6 109 31c7 7 13 13 24 13c14 0 10 -25 7 -39z" />
    <glyph glyph-name="l" unicode="l" 
d="M461 617l-123 -581h170l-8 -36h-400l8 36h191l118 556c-29 -6 -112 -14 -173 -16l2 36c59 1 157 6 184 31c7 7 13 13 24 13c14 0 10 -25 7 -39z" />
    <glyph glyph-name="m" unicode="m" 
d="M210 334l-63 -298h49l-8 -36h-149l8 36h61l71 338c-29 -6 -49 -14 -79 -15l2 35c28 1 64 6 90 31c8 7 14 13 25 13c14 0 10 -25 7 -39l-5 -23c30 21 81 44 114 44c35 0 57 -18 63 -50c40 29 85 50 132 50c81 0 67 -72 54 -132l-53 -252h61l-8 -36h-149l8 36h49l53 252
c8 38 25 96 -28 96c-39 0 -82 -26 -114 -50l-63 -298h49l-8 -36h-137l8 36h49l53 252c8 38 22 96 -30 96c-33 0 -83 -29 -112 -50z" />
    <glyph glyph-name="n" unicode="n" 
d="M240 320l-60 -284h78l-8 -36h-187l8 36h70l71 338c-29 -6 -49 -14 -79 -15l2 35c28 1 64 6 90 31c8 7 14 13 25 13c14 0 10 -25 7 -39l-8 -37c58 28 129 58 188 58c87 0 122 -39 95 -167l-46 -217h70l-8 -36h-187l8 36h78l43 204c15 69 31 144 -61 144
c-63 0 -130 -31 -189 -64z" />
    <glyph glyph-name="o" unicode="o" 
d="M297 -12c-122 0 -189 96 -164 216c26 120 134 216 256 216s190 -96 164 -216c-25 -120 -134 -216 -256 -216zM305 24c101 0 186 83 206 180c21 97 -28 180 -129 180s-186 -83 -207 -180c-20 -97 29 -180 130 -180z" />
    <glyph glyph-name="p" unicode="p" 
d="M255 307l-54 -253c30 -20 63 -30 103 -30c101 0 187 85 208 182c18 85 -12 178 -107 178c-52 0 -114 -34 -150 -77zM193 14l-39 -182h98l-7 -36h-199l7 36h62l115 542c-29 -6 -49 -14 -79 -15l2 35c28 1 64 6 90 31c8 7 14 13 25 13c14 0 10 -25 7 -39l-8 -38
c45 33 93 59 145 59c119 0 165 -104 142 -215c-26 -120 -133 -217 -257 -217c-39 0 -73 9 -104 26z" />
    <glyph glyph-name="q" unicode="q" 
d="M422 33l67 314c-26 23 -68 37 -106 37c-105 0 -178 -87 -200 -190c-24 -116 34 -170 145 -170c31 0 63 2 94 9zM527 342l-109 -510h90l-7 -36h-241l7 36h112l35 164c-31 -3 -63 -8 -94 -8c-143 0 -207 72 -178 211c35 164 163 221 246 221c44 0 81 -14 113 -37
c9 20 20 40 32 55l31 -14c-21 -29 -29 -45 -37 -82z" />
    <glyph glyph-name="r" unicode="r" 
d="M295 267l-49 -231h185l-8 -36h-313l8 36h89l71 338c-29 -6 -49 -14 -79 -15l2 35c28 1 64 6 90 31c8 7 14 13 25 13c14 0 10 -25 7 -39l-17 -80c65 42 146 101 217 101c43 0 67 -29 74 -68l-46 -16c-2 23 -13 48 -41 48c-60 0 -163 -77 -215 -117z" />
    <glyph glyph-name="s" unicode="s" 
d="M522 392l21 47l32 -6c-14 -31 -25 -62 -32 -93l-7 -56h-37v9c-1 66 -23 91 -115 91c-55 0 -136 -20 -150 -88c-27 -126 314 -23 278 -191c-20 -95 -135 -117 -210 -117c-49 0 -110 10 -143 41l-22 -42l-29 9c12 25 21 50 26 76c5 23 8 47 5 68h38
c-4 -83 28 -116 129 -116c55 0 150 14 164 79c27 129 -314 23 -279 189c18 86 113 128 193 128c51 0 95 -11 138 -28z" />
    <glyph glyph-name="t" unicode="t" 
d="M361 523l-24 -115h238l-8 -36h-238l-46 -219c-13 -60 -31 -129 49 -129c54 0 123 19 179 31l4 -34c-64 -16 -133 -33 -197 -33c-80 0 -101 38 -74 165l46 219h-147l8 36h147l24 115h39z" />
    <glyph glyph-name="u" unicode="u" 
d="M433 0l7 34c-58 -27 -118 -46 -177 -46c-86 0 -126 50 -101 167l46 219c-29 -6 -49 -14 -79 -15l2 35c28 1 64 6 90 31c8 7 14 13 25 13c14 0 10 -25 7 -39l-49 -228c-24 -113 1 -147 72 -147c57 0 117 23 172 48l64 302c-29 -6 -49 -14 -79 -15l2 35c28 1 64 6 90 31
c8 7 14 13 25 13c14 0 10 -25 7 -39l-77 -363h81l-8 -36h-120z" />
    <glyph glyph-name="v" unicode="v" 
d="M138 408h168l-8 -36h-62l69 -348l217 348h-63l8 36h169l-8 -36h-64l-245 -384h-44l-81 384h-64z" />
    <glyph glyph-name="w" unicode="w" 
d="M98 408h176l-8 -36h-72l21 -344l142 267h29l30 -267l165 344h-76l8 36h163l-8 -36h-51l-182 -384h-53l-27 231l-123 -231h-55l-21 384h-66z" />
    <glyph glyph-name="x" unicode="x" 
d="M137 408h191l-8 -36h-77l98 -128l147 128h-78l8 36h194l-8 -36h-67l-176 -155l139 -181h68l-8 -36h-206l8 36h86l-119 154l-175 -154h92l-8 -36h-199l8 36h57l205 180l-120 156h-60z" />
    <glyph glyph-name="y" unicode="y" 
d="M139 408h188l-8 -36h-87l92 -309l202 309h-87l8 36h188l-8 -36h-62l-284 -439c-46 -71 -91 -149 -181 -149c-33 0 -69 12 -92 31l22 34c20 -17 51 -29 81 -29c60 0 105 75 134 121l50 78l-105 353h-59z" />
    <glyph glyph-name="z" unicode="z" 
d="M218 408h351l-8 -35l-402 -337h234c61 0 62 0 92 80l6 18h36l-45 -134h-381l9 41l397 331h-194c-75 0 -70 -7 -96 -77l-7 -19h-37z" />
    <glyph glyph-name="braceleft" unicode="{" 
d="M355 192l-27 -127c-11 -53 -7 -88 59 -98l-4 -20c-97 7 -111 39 -91 131l26 124c11 58 11 85 -47 102c64 16 77 44 90 101l28 132c19 90 53 116 144 119l-4 -20c-70 -10 -89 -45 -101 -98l-27 -127c-13 -57 -28 -91 -94 -106l-1 -2c61 -16 60 -52 49 -111z" />
    <glyph glyph-name="bar" unicode="|" 
d="M278 -288v1080h44v-1080h-44z" />
    <glyph glyph-name="braceright" unicode="}" 
d="M373 411l27 127c12 53 7 88 -59 98l4 20c97 -7 111 -39 92 -131l-27 -124c-11 -58 -11 -85 48 -101v-2c-65 -15 -78 -43 -91 -100l-28 -132c-19 -90 -53 -116 -144 -119l4 20c70 10 90 45 101 98l27 127c13 57 28 91 94 106l1 2c-61 16 -60 52 -49 111z" />
    <glyph glyph-name="asciitilde" unicode="~" 
d="M538 441l32 -23c-29 -54 -84 -114 -150 -114c-59 0 -188 75 -240 75c-62 0 -91 -54 -119 -100l-31 23c30 53 76 121 145 121c82 0 188 -75 244 -75c52 0 98 49 119 93z" />
    <glyph glyph-name="exclamdown" unicode="&#xa1;" 
d="M337 249h30l-54 -408c-5 -26 -31 -45 -57 -45s-44 19 -39 45zM324 367c6 29 35 53 64 53c30 0 49 -24 43 -53c-6 -30 -35 -54 -65 -54c-29 0 -48 24 -42 54z" />
    <glyph glyph-name="cent" unicode="&#xa2;" 
d="M430 636h39l-23 -111c50 -2 109 -14 129 -61c-8 -15 -11 -31 -14 -47c-4 -16 -5 -31 -6 -47h-39l5 25c12 55 -14 94 -95 94c-98 0 -185 -81 -205 -176c-22 -100 28 -187 133 -187c58 0 123 20 181 44l8 -34c-62 -28 -127 -44 -190 -46l-28 -134h-39l28 134
c-112 18 -159 110 -135 224c23 108 117 197 228 211z" />
    <glyph glyph-name="sterling" unicode="&#xa3;" 
d="M278 102c-17 25 -32 47 -68 47c-38 0 -68 -26 -76 -64c-7 -33 13 -61 47 -61c40 0 84 39 97 78zM317 327h149l-8 -36h-139c7 -47 14 -108 3 -158l-5 -19c17 -34 56 -90 100 -90c52 0 86 53 96 98l33 -5c-14 -64 -65 -129 -135 -129c-54 0 -88 45 -113 82
c-25 -46 -78 -82 -128 -82c-54 0 -89 43 -78 98c13 58 64 99 122 99c34 0 56 -10 74 -34c8 46 -2 90 -8 133l-1 7h-125l8 36h114c-6 37 -8 76 0 115c21 100 94 170 197 170c80 0 150 -55 132 -141c-6 -31 -21 -62 -47 -62c-19 0 -21 21 -17 37c4 19 12 29 27 43
c5 56 -51 87 -102 87c-83 0 -132 -60 -149 -137c-8 -40 -5 -74 0 -112z" />
    <glyph glyph-name="fraction" unicode="&#x2044;" 
d="M558 629l23 -16l-411 -640l-23 16z" />
    <glyph glyph-name="yen" unicode="&#xa5;" 
d="M404 295h125l-8 -36h-146l-47 -223h134l-8 -36h-307l8 36h134l47 223h-145l8 36h124l-106 269h-59l8 36h192l-8 -36h-91l105 -267l219 267h-93l8 36h192l-8 -36h-58z" />
    <glyph glyph-name="florin" unicode="&#x192;" 
d="M364 342h-111l7 36h115l31 93c11 32 23 69 45 98c29 38 74 55 116 55h31l-8 -37h-35c-76 1 -93 -64 -112 -122l-30 -87h102l-7 -36h-106l-101 -298c-33 -99 -62 -153 -174 -153h-17l8 37h13c95 0 105 35 134 121z" />
    <glyph glyph-name="section" unicode="&#xa7;" 
d="M288 208l111 -100c33 14 59 41 66 75c8 40 -16 68 -41 90l-121 112c-33 -19 -56 -43 -64 -79c-9 -42 23 -75 49 -98zM422 576c-52 0 -103 -30 -115 -85c-23 -110 227 -182 200 -307c-10 -47 -46 -78 -89 -100c20 -28 31 -53 22 -93c-15 -72 -96 -111 -160 -111
c-74 0 -133 46 -116 126c3 14 14 39 32 39c17 0 19 -22 16 -36c-2 -11 -7 -18 -13 -28c6 -45 39 -65 86 -65c50 0 103 26 115 82c21 103 -230 182 -203 309c10 47 42 76 85 101c-18 21 -23 51 -17 82c17 77 90 122 162 122c67 0 131 -42 115 -116c-3 -14 -12 -42 -30 -42
c-15 0 -20 14 -17 27c3 11 8 21 14 32c3 44 -49 63 -87 63z" />
    <glyph glyph-name="currency" unicode="&#xa4;" 
d="M120 506l-109 107l33 32l108 -107c42 34 94 52 148 52s106 -18 148 -52l108 107l33 -32l-109 -107c33 -45 50 -90 50 -146s-17 -101 -50 -146l109 -107l-33 -32l-108 107c-42 -34 -94 -52 -148 -52s-106 18 -148 52l-108 -107l-33 32l109 107c-33 45 -50 90 -50 146
s17 101 50 146zM300 169c108 0 191 83 191 191s-83 192 -191 192s-191 -84 -191 -192s83 -191 191 -191z" />
    <glyph glyph-name="quotesingle" unicode="'" 
d="M388 320h-40l10 178c2 22 4 58 8 76c3 15 33 38 64 38s51 -23 48 -38c-4 -18 -16 -54 -24 -76z" />
    <glyph glyph-name="quotedblleft" unicode="&#x201c;" 
d="M390 612l-8 -38c-29 -8 -63 -24 -80 -52c6 2 12 3 17 3c31 0 50 -21 43 -53c-7 -34 -36 -60 -71 -60c-39 0 -56 37 -48 72c13 64 88 113 147 128zM588 612l-8 -38c-29 -8 -63 -24 -80 -52c6 2 12 3 17 3c31 0 50 -21 43 -53c-7 -34 -36 -60 -71 -60c-39 0 -56 37 -48 72
c13 64 88 113 147 128z" />
    <glyph glyph-name="guillemotleft" unicode="&#xab;" 
d="M454 548l21 -26l-288 -222l194 -222l-32 -26l-213 248zM618 548l21 -26l-288 -222l194 -222l-32 -26l-213 248z" />
    <glyph glyph-name="guilsinglleft" unicode="&#x2039;" 
d="M536 548l21 -26l-288 -222l194 -222l-32 -26l-213 248z" />
    <glyph glyph-name="guilsinglright" unicode="&#x203a;" 
d="M265 522l31 26l214 -248l-319 -248l-20 26l288 222z" />
    <glyph glyph-name="fi" unicode="&#xfb01;" 
d="M547 615l-39 -41c-33 8 -68 15 -104 15c-80 0 -89 -65 -101 -124l-12 -57h112l-8 -36h-112l-71 -336h72l-8 -36h-232l8 36h121l71 336h-121l8 36h121l13 63c25 115 67 153 147 153c46 0 88 -13 135 -9zM351 0l8 36h102l71 336h-91l8 36c25 0 70 -8 96 17c8 7 14 13 25 13
c14 0 10 -25 7 -39l-77 -363h77l-8 -36h-218zM643 540c-6 -29 -37 -54 -66 -54c-30 0 -48 25 -42 54c6 30 35 54 65 54c29 0 49 -24 43 -54z" />
    <glyph glyph-name="fl" unicode="&#xfb02;" 
d="M623 617l-123 -581h77l-8 -36h-218l8 36h102l118 556c-28 -10 -55 -14 -84 -12l-38 3l-53 6c-77 9 -89 -65 -101 -124l-12 -57h112l-8 -36h-112l-71 -336h72l-8 -36h-232l8 36h121l71 336h-121l8 36h121l13 63c25 115 67 153 147 153c39 0 74 -10 89 -10c31 0 65 5 91 29
c7 7 14 13 23 13c13 0 11 -25 8 -39z" />
    <glyph glyph-name="endash" unicode="&#x2013;" 
d="M510 282h-300l8 36h300z" />
    <glyph glyph-name="dagger" unicode="&#x2020;" 
d="M402 600h52l-43 -171l110 6l-9 -45l-108 6l-13 -85l-74 -311h-34l58 311l23 85l-110 -6l9 45l108 -6z" />
    <glyph glyph-name="daggerdbl" unicode="&#x2021;" 
d="M367 410l-112 -6l9 45l108 -6l28 157h55l-40 -157l110 6l-9 -45l-110 6l-47 -220l113 6l-10 -45l-108 6l-27 -157h-55l39 157l-110 -6l10 45l109 -6z" />
    <glyph glyph-name="periodcentered" unicode="&#xb7;" 
d="M250 360c0 28 22 50 50 50s50 -22 50 -50s-22 -50 -50 -50s-50 22 -50 50z" />
    <glyph glyph-name="paragraph" unicode="&#xb6;" 
d="M259 -94l79 372c-98 -8 -170 56 -148 160c13 62 63 162 230 162h211l-8 -36h-39l-140 -658h-39l140 658h-107l-140 -658h-39z" />
    <glyph glyph-name="bullet" unicode="&#x2022;" 
d="M177 252c0 67 56 123 123 123s123 -56 123 -123c0 -69 -56 -123 -123 -123c-69 0 -123 54 -123 123z" />
    <glyph glyph-name="quotesinglbase" unicode="&#x201a;" 
d="M221 -92l9 38c28 8 63 24 80 52c-7 -2 -12 -3 -17 -3c-31 0 -51 21 -44 53c7 34 37 60 72 60c39 0 55 -37 48 -72c-14 -64 -88 -113 -148 -128z" />
    <glyph glyph-name="quotedblbase" unicode="&#x201e;" 
d="M122 -92l9 38c28 8 63 24 80 52c-7 -2 -12 -3 -17 -3c-31 0 -51 21 -44 53c7 34 37 60 72 60c39 0 55 -37 48 -72c-14 -64 -88 -113 -148 -128zM320 -92l9 38c28 8 63 24 80 52c-7 -2 -12 -3 -17 -3c-31 0 -51 21 -44 53c7 34 37 60 72 60c39 0 55 -37 48 -72
c-14 -64 -88 -113 -148 -128z" />
    <glyph glyph-name="quotedblright" unicode="&#x201d;" 
d="M230 412l8 38c28 8 63 24 80 52c-7 -2 -12 -3 -17 -3c-31 0 -50 21 -44 53c8 34 37 60 72 60c39 0 55 -37 48 -72c-14 -64 -88 -113 -147 -128zM428 412l8 38c28 8 63 24 80 52c-7 -2 -12 -3 -17 -3c-31 0 -50 21 -44 53c8 34 37 60 72 60c39 0 55 -37 48 -72
c-14 -64 -88 -113 -147 -128z" />
    <glyph glyph-name="guillemotright" unicode="&#xbb;" 
d="M183 522l31 26l214 -248l-319 -248l-20 26l288 222zM347 522l31 26l214 -248l-319 -248l-20 26l288 222z" />
    <glyph glyph-name="ellipsis" unicode="&#x2026;" 
d="M49 49c7 33 41 61 74 61s55 -28 48 -61s-41 -61 -74 -61s-55 28 -48 61zM249 49c7 33 41 61 74 61s55 -28 48 -61s-41 -61 -74 -61s-55 28 -48 61zM449 49c7 33 41 61 74 61s55 -28 48 -61s-41 -61 -74 -61s-55 28 -48 61z" />
    <glyph glyph-name="perthousand" unicode="&#x2030;" 
d="M239 612c71 0 77 -72 64 -131c-12 -59 -49 -131 -120 -131s-76 73 -64 131c13 59 49 131 120 131zM233 584c-53 0 -70 -63 -79 -103c-8 -39 -18 -103 35 -103s71 63 79 103c9 40 18 103 -35 103zM448 629l23 -16l-411 -640l-23 16zM333 250c71 0 77 -72 64 -131
c-12 -59 -49 -131 -120 -131s-76 73 -64 131c13 59 49 131 120 131zM327 222c-53 0 -70 -63 -79 -103c-8 -39 -18 -103 35 -103s71 63 79 103c9 40 18 103 -35 103zM543 250c71 0 77 -72 64 -131c-12 -59 -49 -131 -120 -131s-76 73 -64 131c13 59 49 131 120 131zM537 222
c-53 0 -70 -63 -79 -103c-8 -39 -18 -103 35 -103s71 63 79 103c9 40 18 103 -35 103z" />
    <glyph glyph-name="questiondown" unicode="&#xbf;" 
d="M365 249h37l-4 -19c-32 -149 -171 -186 -193 -291c-12 -58 17 -107 76 -107c56 0 113 35 132 92c-2 10 -2 20 0 31c3 14 14 33 30 33c25 0 21 -28 17 -47c-16 -77 -94 -145 -186 -145c-75 0 -129 58 -113 135c15 68 59 110 111 159c60 55 79 84 93 159zM462 366
c-6 -29 -35 -53 -64 -53c-30 0 -49 24 -43 53c6 30 35 54 65 54c29 0 48 -24 42 -54z" />
    <glyph glyph-name="grave" unicode="`" 
d="M330 645l144 -142l-29 -30l-161 127z" />
    <glyph glyph-name="acute" unicode="&#xb4;" 
d="M544 645l28 -45l-215 -127l-17 30z" />
    <glyph glyph-name="circumflex" unicode="&#x2c6;" 
d="M422 573l-163 -98l-18 23l196 145l134 -145l-28 -23z" />
    <glyph glyph-name="tilde" unicode="&#x2dc;" 
d="M298 512h-41c8 50 41 99 99 99c28 0 51 -14 72 -28s40 -27 59 -27c31 0 46 34 52 59h43c-9 -52 -44 -101 -103 -101c-27 0 -52 17 -72 31c-15 10 -36 24 -57 24c-32 0 -48 -31 -52 -57z" />
    <glyph glyph-name="macron" unicode="&#xaf;" 
d="M535 541h-240l8 36h240z" />
    <glyph glyph-name="breve" unicode="&#x2d8;" 
d="M540 626h36c-15 -95 -91 -125 -170 -125s-141 30 -116 125h36c-17 -61 35 -83 89 -83s116 22 125 83z" />
    <glyph glyph-name="dotaccent" unicode="&#x2d9;" 
d="M370 559c6 27 32 49 59 49s45 -22 39 -49s-33 -49 -60 -49s-44 22 -38 49z" />
    <glyph glyph-name="dieresis" unicode="&#xa8;" 
d="M262 559c6 27 32 49 59 49s45 -22 39 -49s-33 -49 -60 -49s-44 22 -38 49zM478 559c6 27 32 49 59 49s45 -22 39 -49s-33 -49 -60 -49s-44 22 -38 49z" />
    <glyph glyph-name="ring" unicode="&#x2da;" 
d="M337 562c10 45 55 82 100 82s74 -37 64 -82c-9 -45 -54 -82 -99 -82s-74 37 -65 82zM379 562c-4 -22 7 -46 31 -46s45 24 49 46c5 23 -6 46 -30 46s-45 -23 -50 -46z" />
    <glyph glyph-name="cedilla" unicode="&#xb8;" 
d="M282 9h37l-31 -77h19c49 0 89 -25 78 -79c-14 -64 -82 -88 -137 -88c-34 0 -73 8 -99 25l8 37c28 -15 61 -26 95 -26c33 0 82 13 91 53c7 35 -36 41 -62 41l-49 -3z" />
    <glyph glyph-name="hungarumlaut" unicode="&#x2dd;" 
d="M591 645l28 -45l-215 -127l-17 30zM420 645l28 -45l-215 -127l-17 30z" />
    <glyph glyph-name="ogonek" unicode="&#x2db;" 
d="M395 -145l-8 -38c-36 -13 -62 -21 -98 -21c-60 0 -114 25 -99 94c11 53 58 89 107 110h63v-2c-40 -21 -118 -59 -128 -106c-10 -46 25 -60 67 -60c34 0 63 11 96 23z" />
    <glyph glyph-name="caron" unicode="&#x2c7;" 
d="M416 545l163 98l18 -23l-196 -145l-134 145l28 23z" />
    <glyph glyph-name="emdash" unicode="&#x2014;" 
d="M660 282h-600l8 36h600z" />
    <glyph glyph-name="AE" unicode="&#xc6;" 
d="M693 600l-33 -151h-39l5 21c14 68 -2 94 -66 94h-89l-47 -219h90l15 69h39l-37 -172h-39l15 67h-90l-58 -273h77c85 0 99 7 120 106l8 35h39l-38 -177h-300l8 36h47l33 157h-169l-86 -157h88l-8 -36h-155l8 36h29l312 564h321zM361 229l71 335h-43l-184 -335h156z" />
    <glyph glyph-name="ordfeminine" unicode="&#xaa;" 
d="M210 257h289l-8 -36h-289zM437 357l4 20c-41 -16 -84 -27 -125 -27c-44 0 -89 16 -78 68c12 55 70 75 114 78l116 9l4 19c8 37 11 58 -33 58c-33 0 -69 -8 -102 -25l-7 -35h-36l12 56c42 21 91 34 134 34c21 0 52 -4 66 -18c15 -15 9 -40 4 -61l-31 -146h54l-6 -30h-90z
M448 411l14 65c-41 -1 -88 -4 -125 -12c-28 -6 -57 -17 -63 -46c-7 -31 23 -38 48 -38c40 0 84 15 126 31z" />
    <glyph glyph-name="Lslash" unicode="&#x141;" 
d="M280 371l143 71l-9 -42l-143 -71l-62 -293h202c67 0 100 38 109 81l17 79h39l-42 -196h-483l8 36h111l57 271l-138 -69l9 42l138 69l46 215h-111l8 36h265l-8 -36h-115z" />
    <glyph glyph-name="Oslash" unicode="&#xd8;" 
d="M170 42l-53 -63l-27 20l59 71c-36 60 -34 154 -18 230c50 234 197 312 299 312c53 0 94 -18 128 -54l48 58l28 -20l-55 -66c36 -60 34 -153 18 -230c-50 -234 -198 -312 -300 -312c-53 0 -97 18 -127 54zM548 494l-351 -419c25 -33 62 -51 108 -51c91 0 206 72 250 276
c13 62 17 142 -7 194zM180 106l350 419c-23 33 -63 51 -108 51c-91 0 -206 -72 -249 -276c-13 -62 -17 -142 7 -194z" />
    <glyph glyph-name="OE" unicode="&#x152;" 
d="M425 600h253l-33 -151h-39l7 33c10 46 -4 82 -50 82h-107l-46 -217h90l14 67h39l-37 -172h-39l15 69h-90l-58 -275h77c83 0 99 6 120 106l8 35h39l-38 -177h-253c-20 -7 -41 -12 -61 -12c-80 0 -187 80 -139 306c49 226 175 318 272 318c20 0 38 -4 56 -12zM305 36
l112 529c-14 8 -32 11 -49 11c-136 0 -205 -170 -227 -276c-23 -107 -27 -276 110 -276c17 0 36 5 54 12z" />
    <glyph glyph-name="ordmasculine" unicode="&#xba;" 
d="M210 257h289l-8 -36h-289zM374 350c-75 0 -128 53 -112 131c17 78 93 131 168 131s129 -53 112 -131c-16 -78 -93 -131 -168 -131zM381 380c58 0 113 43 125 101c13 58 -24 101 -82 101s-113 -43 -126 -101c-12 -58 25 -101 83 -101z" />
    <glyph glyph-name="ae" unicode="&#xe6;" 
d="M396 284l-13 -62h194c18 75 11 162 -77 162c-63 0 -92 -44 -104 -100zM337 186h-76c-109 0 -147 -32 -157 -79c-12 -55 32 -83 82 -83c45 0 88 18 126 48zM613 232l-9 -46h-228l-14 -64c-15 -70 3 -98 69 -98c49 0 99 26 142 58l15 -29c-54 -38 -113 -65 -174 -65
c-39 0 -77 16 -92 51c-44 -34 -94 -51 -144 -51c-69 0 -133 38 -117 115c15 71 64 119 209 119h74l12 57c14 66 -1 105 -56 105c-36 0 -79 -17 -115 -34l-12 -59h-39l18 84c47 20 108 45 155 45c41 0 77 -19 86 -57c33 40 71 57 118 57c94 0 125 -83 102 -188z" />
    <glyph glyph-name="dotlessi" unicode="&#x131;" 
d="M89 0l8 36h203l71 338c-29 -6 -121 -14 -196 -16l2 36c73 1 181 6 207 31c8 7 14 13 25 13c14 0 10 -25 7 -39l-77 -363h180l-8 -36h-422z" />
    <glyph glyph-name="lslash" unicode="&#x142;" 
d="M461 617l-52 -246l158 79l-9 -42l-158 -79l-62 -293h170l-8 -36h-400l8 36h191l57 271l-159 -79l9 42l159 79l52 243c-29 -6 -112 -14 -173 -16l2 36c59 1 157 6 184 31c7 7 13 13 24 13c14 0 10 -25 7 -39z" />
    <glyph glyph-name="oslash" unicode="&#xf8;" 
d="M180 29l-58 -56l-22 23l59 57c-29 40 -37 96 -26 151c26 120 135 216 256 216c43 0 83 -12 112 -37l60 58l23 -23l-59 -58c31 -39 40 -100 28 -156c-25 -120 -134 -216 -256 -216c-45 0 -87 14 -117 41zM493 330l-280 -271c24 -24 54 -35 92 -35c101 0 186 83 206 180
c10 45 5 92 -18 126zM191 83l280 271c-24 19 -55 30 -89 30c-101 0 -186 -83 -207 -180c-9 -43 -4 -87 16 -121z" />
    <glyph glyph-name="oe" unicode="&#x153;" 
d="M386 373h1c32 34 68 47 109 47c94 0 127 -83 104 -188l-11 -46h-228l-14 -64c-15 -70 3 -98 69 -98c49 0 99 26 142 58l15 -29c-54 -38 -113 -65 -174 -65c-36 0 -73 13 -86 46c-26 -35 -75 -46 -112 -46c-114 0 -144 117 -122 217c20 98 103 215 214 215
c40 0 79 -13 93 -47zM300 87l48 223c10 48 -3 74 -62 74c-93 0 -148 -98 -165 -179c-19 -86 -5 -181 94 -181c49 0 78 27 85 63zM368 222h194c20 75 11 162 -77 162c-60 0 -92 -44 -104 -100z" />
    <glyph glyph-name="germandbls" unicode="&#xdf;" 
d="M352 302l9 40c76 3 150 19 169 111c17 80 -25 123 -102 123c-128 0 -146 -114 -166 -209l-78 -367h-119l8 36h80l82 386c30 141 115 190 196 190c97 0 164 -54 143 -151c-15 -71 -58 -124 -133 -136v-2c86 -3 124 -80 106 -164c-20 -92 -93 -171 -191 -171
c-79 0 -107 52 -91 128l2 13h36c-14 -58 -1 -105 63 -105c71 0 124 65 138 130c24 115 -52 146 -152 148z" />
    <glyph glyph-name="Aacute" unicode="&#xc1;" 
d="M437 663l98 -627h48l-8 -36h-183l8 36h93l-24 156h-261l-87 -156h93l-8 -36h-181l8 36h48zM464 228l-50 332l-186 -332h236zM544 837l28 -45l-215 -127l-17 30z" />
    <glyph glyph-name="Acircumflex" unicode="&#xc2;" 
d="M437 663l98 -627h48l-8 -36h-183l8 36h93l-24 156h-261l-87 -156h93l-8 -36h-181l8 36h48zM464 228l-50 332l-186 -332h236zM422 765l-163 -98l-18 23l196 145l134 -145l-28 -23z" />
    <glyph glyph-name="Adieresis" unicode="&#xc4;" 
d="M437 663l98 -627h48l-8 -36h-183l8 36h93l-24 156h-261l-87 -156h93l-8 -36h-181l8 36h48zM464 228l-50 332l-186 -332h236zM262 751c6 27 32 49 59 49s45 -22 39 -49s-33 -49 -60 -49s-44 22 -38 49zM478 751c6 27 32 49 59 49s45 -22 39 -49s-33 -49 -60 -49
s-44 22 -38 49z" />
    <glyph glyph-name="Agrave" unicode="&#xc0;" 
d="M437 663l98 -627h48l-8 -36h-183l8 36h93l-24 156h-261l-87 -156h93l-8 -36h-181l8 36h48zM464 228l-50 332l-186 -332h236zM330 837l144 -142l-29 -30l-161 127z" />
    <glyph glyph-name="Aring" unicode="&#xc5;" 
d="M437 663l98 -627h48l-8 -36h-183l8 36h93l-24 156h-261l-87 -156h93l-8 -36h-181l8 36h48zM464 228l-50 332l-186 -332h236zM337 754c10 45 55 82 100 82s74 -37 64 -82c-9 -45 -54 -82 -99 -82s-74 37 -65 82zM379 754c-4 -22 7 -46 31 -46s45 24 49 46
c5 23 -6 46 -30 46s-45 -23 -50 -46z" />
    <glyph glyph-name="Atilde" unicode="&#xc3;" 
d="M437 663l98 -627h48l-8 -36h-183l8 36h93l-24 156h-261l-87 -156h93l-8 -36h-181l8 36h48zM464 228l-50 332l-186 -332h236zM298 704h-41c8 50 41 99 99 99c28 0 51 -14 72 -28s40 -27 59 -27c31 0 46 34 52 59h43c-9 -52 -44 -101 -103 -101c-27 0 -52 17 -72 31
c-15 10 -36 24 -57 24c-32 0 -48 -31 -52 -57z" />
    <glyph glyph-name="Ccedilla" unicode="&#xc7;" 
d="M596 571l20 38l33 -12c-19 -32 -28 -67 -36 -101l-11 -70l-38 -6c17 97 -7 156 -112 156c-149 0 -233 -149 -260 -274c-26 -123 -4 -278 142 -278c104 0 169 68 190 168h39l-25 -117c-64 -53 -140 -87 -215 -87c-105 0 -222 83 -172 318c49 231 201 306 307 306
c51 0 100 -15 138 -41zM282 9h37l-31 -77h19c49 0 89 -25 78 -79c-14 -64 -82 -88 -137 -88c-34 0 -73 8 -99 25l8 37c28 -15 61 -26 95 -26c33 0 82 13 91 53c7 35 -36 41 -62 41l-49 -3z" />
    <glyph glyph-name="Eacute" unicode="&#xc9;" 
d="M527 0h-480l8 36h103l112 528h-103l8 36h462l-34 -158h-39l3 15c19 91 15 107 -74 107h-184l-46 -218h164l18 87h39l-47 -221h-39l21 98h-164l-58 -274h180c115 0 123 22 144 121l5 23h39zM544 837l28 -45l-215 -127l-17 30z" />
    <glyph glyph-name="Ecircumflex" unicode="&#xca;" 
d="M527 0h-480l8 36h103l112 528h-103l8 36h462l-34 -158h-39l3 15c19 91 15 107 -74 107h-184l-46 -218h164l18 87h39l-47 -221h-39l21 98h-164l-58 -274h180c115 0 123 22 144 121l5 23h39zM422 765l-163 -98l-18 23l196 145l134 -145l-28 -23z" />
    <glyph glyph-name="Edieresis" unicode="&#xcb;" 
d="M527 0h-480l8 36h103l112 528h-103l8 36h462l-34 -158h-39l3 15c19 91 15 107 -74 107h-184l-46 -218h164l18 87h39l-47 -221h-39l21 98h-164l-58 -274h180c115 0 123 22 144 121l5 23h39zM262 751c6 27 32 49 59 49s45 -22 39 -49s-33 -49 -60 -49s-44 22 -38 49z
M478 751c6 27 32 49 59 49s45 -22 39 -49s-33 -49 -60 -49s-44 22 -38 49z" />
    <glyph glyph-name="Egrave" unicode="&#xc8;" 
d="M527 0h-480l8 36h103l112 528h-103l8 36h462l-34 -158h-39l3 15c19 91 15 107 -74 107h-184l-46 -218h164l18 87h39l-47 -221h-39l21 98h-164l-58 -274h180c115 0 123 22 144 121l5 23h39zM330 837l144 -142l-29 -30l-161 127z" />
    <glyph glyph-name="Eng" unicode="&#x14a;" 
d="M311 600l-19 -88h2c33 63 101 100 166 100c94 0 155 -50 135 -148l-97 -456c-17 -78 -103 -88 -165 -88l8 36c57 0 109 10 122 72l89 417c20 98 -30 131 -100 131c-92 0 -169 -107 -189 -201l-72 -339h85l-8 -36h-209l8 36h85l112 528h-85l8 36h124z" />
    <glyph glyph-name="Eth" unicode="&#xd0;" 
d="M114 292l8 36h81l47 224l-78 12l12 36c25 -4 49 -12 83 -12c39 0 84 12 134 12c175 0 221 -137 184 -311c-51 -240 -198 -289 -305 -289c-44 0 -85 12 -129 12c-31 0 -63 -8 -95 -12l2 36l85 12l52 244h-81zM289 552l-47 -224h116l-8 -36h-116l-52 -244l104 -12
c109 -13 217 64 254 237c48 227 -44 307 -163 291z" />
    <glyph glyph-name="Gamma" unicode="&#x393;" 
d="M311 600h282l-8 -36h-243l-120 -564h-39z" />
    <glyph glyph-name="Hbar" unicode="&#x126;" 
d="M529 434h-274l-23 -108h274zM132 36l84 398h-85l8 36h85l20 94h-85l8 36h209l-8 -36h-85l-20 -94h274l20 94h-85l8 36h209l-8 -36h-85l-20 -94h85l-8 -36h-85l-84 -398h85l-8 -36h-209l8 36h85l54 254h-274l-54 -254h85l-8 -36h-209l8 36h85z" />
    <glyph glyph-name="IJ" unicode="&#x132;" 
d="M181 600h203l-8 -36h-82l-112 -528h82l-8 -36h-203l8 36h82l112 528h-82zM509 131l92 433h-64l8 36h155l-8 -36h-52l-93 -439c-14 -66 -37 -137 -121 -137c-40 0 -72 24 -94 53l31 146h39l-5 -20c-21 -101 -14 -143 39 -143s65 69 73 107z" />
    <glyph glyph-name="Iacute" unicode="&#xcd;" 
d="M245 600h366l-8 -36h-163l-112 -528h163l-8 -36h-366l8 36h164l112 528h-164zM544 837l28 -45l-215 -127l-17 30z" />
    <glyph glyph-name="Icircumflex" unicode="&#xce;" 
d="M245 600h366l-8 -36h-163l-112 -528h163l-8 -36h-366l8 36h164l112 528h-164zM422 765l-163 -98l-18 23l196 145l134 -145l-28 -23z" />
    <glyph glyph-name="Idieresis" unicode="&#xcf;" 
d="M245 600h366l-8 -36h-163l-112 -528h163l-8 -36h-366l8 36h164l112 528h-164zM262 751c6 27 32 49 59 49s45 -22 39 -49s-33 -49 -60 -49s-44 22 -38 49zM478 751c6 27 32 49 59 49s45 -22 39 -49s-33 -49 -60 -49s-44 22 -38 49z" />
    <glyph glyph-name="Igrave" unicode="&#xcc;" 
d="M245 600h366l-8 -36h-163l-112 -528h163l-8 -36h-366l8 36h164l112 528h-164zM330 837l144 -142l-29 -30l-161 127z" />
    <glyph glyph-name="Ldot" unicode="&#x13f;" 
d="M179 600h265l-8 -36h-115l-112 -528h202c67 0 100 38 109 81l17 79h39l-42 -196h-483l8 36h111l112 528h-111zM506 360c7 33 39 60 72 60s55 -27 48 -60s-40 -60 -73 -60s-54 27 -47 60z" />
    <glyph glyph-name="Ntilde" unicode="&#xd1;" 
d="M623 564l-120 -564h-46l-193 543h-2l-107 -507h94l-8 -36h-209l8 36h76l112 528h-76l8 36h127l189 -536h2l106 500h-97l8 36h200l-8 -36h-64zM298 704h-41c8 50 41 99 99 99c28 0 51 -14 72 -28s40 -27 59 -27c31 0 46 34 52 59h43c-9 -52 -44 -101 -103 -101
c-27 0 -52 17 -72 31c-15 10 -36 24 -57 24c-32 0 -48 -31 -52 -57z" />
    <glyph glyph-name="Oacute" unicode="&#xd3;" 
d="M297 -12c-102 0 -216 78 -166 312s197 312 299 312s217 -78 167 -312s-198 -312 -300 -312zM305 24c91 0 206 72 250 276c43 204 -42 276 -133 276s-206 -72 -249 -276c-44 -204 41 -276 132 -276zM544 837l28 -45l-215 -127l-17 30z" />
    <glyph glyph-name="Ocircumflex" unicode="&#xd4;" 
d="M297 -12c-102 0 -216 78 -166 312s197 312 299 312s217 -78 167 -312s-198 -312 -300 -312zM305 24c91 0 206 72 250 276c43 204 -42 276 -133 276s-206 -72 -249 -276c-44 -204 41 -276 132 -276zM422 765l-163 -98l-18 23l196 145l134 -145l-28 -23z" />
    <glyph glyph-name="Odieresis" unicode="&#xd6;" 
d="M297 -12c-102 0 -216 78 -166 312s197 312 299 312s217 -78 167 -312s-198 -312 -300 -312zM305 24c91 0 206 72 250 276c43 204 -42 276 -133 276s-206 -72 -249 -276c-44 -204 41 -276 132 -276zM262 751c6 27 32 49 59 49s45 -22 39 -49s-33 -49 -60 -49
s-44 22 -38 49zM478 751c6 27 32 49 59 49s45 -22 39 -49s-33 -49 -60 -49s-44 22 -38 49z" />
    <glyph glyph-name="Ograve" unicode="&#xd2;" 
d="M297 -12c-102 0 -216 78 -166 312s197 312 299 312s217 -78 167 -312s-198 -312 -300 -312zM305 24c91 0 206 72 250 276c43 204 -42 276 -133 276s-206 -72 -249 -276c-44 -204 41 -276 132 -276zM330 837l144 -142l-29 -30l-161 127z" />
    <glyph glyph-name="Omega" unicode="&#x3a9;" 
d="M422 576c-135 0 -234 -128 -260 -250c-22 -107 3 -188 110 -212l-24 -114h-194l8 36h158l12 56c-104 20 -133 136 -111 237c31 145 150 283 309 283s220 -138 189 -283c-22 -101 -99 -217 -211 -237l-12 -56h158l-8 -36h-194l24 114c117 24 178 105 200 212
c26 122 -19 250 -154 250z" />
    <glyph glyph-name="Otilde" unicode="&#xd5;" 
d="M297 -12c-102 0 -216 78 -166 312s197 312 299 312s217 -78 167 -312s-198 -312 -300 -312zM305 24c91 0 206 72 250 276c43 204 -42 276 -133 276s-206 -72 -249 -276c-44 -204 41 -276 132 -276zM298 704h-41c8 50 41 99 99 99c28 0 51 -14 72 -28s40 -27 59 -27
c31 0 46 34 52 59h43c-9 -52 -44 -101 -103 -101c-27 0 -52 17 -72 31c-15 10 -36 24 -57 24c-32 0 -48 -31 -52 -57z" />
    <glyph glyph-name="Phi" unicode="&#x3a6;" 
d="M410 612h39l-12 -57c143 4 216 -117 187 -255c-30 -138 -151 -259 -295 -255l-13 -57h-39l13 57c-146 -4 -217 117 -187 255c29 138 154 259 295 255zM297 81l93 438c-127 5 -220 -100 -245 -219c-26 -119 23 -224 152 -219zM429 519l-93 -438c127 -5 220 100 246 219
c25 119 -24 224 -153 219z" />
    <glyph glyph-name="Pts" unicode="&#x20a7;" 
d="M86 36l111 522l-57 6l8 37l68 -4c46 -2 96 6 137 6c91 0 126 -48 103 -155c-23 -110 -93 -170 -222 -170h-58l-51 -242h101l-8 -36h-198l8 36h58zM236 559l-52 -245h64c100 0 146 38 166 134c17 78 -1 124 -82 119zM543 360l-13 -60h99l-8 -36h-99l-38 -180
c-6 -27 -10 -60 21 -60c26 0 53 6 75 18l-1 -35c-24 -9 -53 -19 -91 -19c-46 0 -59 22 -46 84l41 192h-65l8 36h65l13 60h39z" />
    <glyph glyph-name="SA420000" unicode="&#x2319;" 
d="M30 276h44v-232h496v-44h-540v276z" />
    <glyph glyph-name="SD630000" unicode="&#x22c5;" 
d="M250 360c0 20 16 36 36 36s36 -16 36 -36s-16 -36 -36 -36s-36 16 -36 36z" />
    <glyph glyph-name="SF010000" unicode="&#x250c;" 
d="M264 -288v576h336v-72h-264v-504h-72z" />
    <glyph glyph-name="SF020000" unicode="&#x2514;" 
d="M264 216v576h72v-504h264v-72h-336z" />
    <glyph glyph-name="SF030000" unicode="&#x2510;" 
d="M336 288v-576h-72v504h-264v72h336z" />
    <glyph glyph-name="SF040000" unicode="&#x2518;" 
d="M336 792v-576h-336v72h264v504h72z" />
    <glyph glyph-name="SF050000" unicode="&#x253c;" 
d="M0 216v72h264v504h72v-504h264v-72h-264v-504h-72v504h-264z" />
    <glyph glyph-name="SF060000" unicode="&#x252c;" 
d="M0 216v72h600v-72h-264v-504h-72v504h-264z" />
    <glyph glyph-name="SF070000" unicode="&#x2534;" 
d="M0 216v72h264v504h72v-504h264v-72h-600z" />
    <glyph glyph-name="SF080000" unicode="&#x251c;" 
d="M264 -288v1080h72v-504h264v-72h-264v-504h-72z" />
    <glyph glyph-name="SF090000" unicode="&#x2524;" 
d="M0 216v72h264v504h72v-1080h-72v504h-264z" />
    <glyph glyph-name="SF100000" unicode="&#x2500;" 
d="M0 216v72h600v-72h-600z" />
    <glyph glyph-name="SF110000" unicode="&#x2502;" 
d="M264 -288v1080h72v-1080h-72z" />
    <glyph glyph-name="SF140000" unicode="&#x2591;" 
d="M0 -288v98h100v-98h-100zM200 -288v98h100v-98h-100zM400 -288v98h100v-98h-100zM0 694v98h100v-98h-100zM200 694v98h100v-98h-100zM400 694v98h100v-98h-100zM0 497v98h100v-98h-100zM200 497v98h100v-98h-100zM400 497v98h100v-98h-100zM0 -91v98h100v-98h-100z
M200 -91v98h100v-98h-100zM400 -91v98h100v-98h-100zM0 105v98h100v-98h-100zM200 105v98h100v-98h-100zM400 105v98h100v-98h-100zM0 301v98h100v-98h-100zM200 301v98h100v-98h-100zM400 301v98h100v-98h-100z" />
    <glyph glyph-name="SF150000" unicode="&#x2592;" 
d="M0 -288v97h99v-97h-99zM200 -288v97h99v-97h-99zM400 -288v97h99v-97h-99zM0 695v97h99v-97h-99zM200 695v97h99v-97h-99zM400 695v97h99v-97h-99zM0 499v97h99v-97h-99zM200 499v97h99v-97h-99zM400 499v97h99v-97h-99zM0 -92v97h99v-97h-99zM200 -92v97h99v-97h-99z
M400 -92v97h99v-97h-99zM0 105v97h99v-97h-99zM200 105v97h99v-97h-99zM400 105v97h99v-97h-99zM0 302v97h99v-97h-99zM200 302v97h99v-97h-99zM400 302v97h99v-97h-99zM100 597v97h99v-97h-99zM300 597v97h99v-97h-99zM500 597v97h100v-97h-100zM100 400v97h99v-97h-99z
M300 400v97h99v-97h-99zM500 400v97h100v-97h-100zM500 203v97h100v-97h-100zM300 203v97h99v-97h-99zM100 203v97h99v-97h-99zM100 6v97h99v-97h-99zM300 6v97h99v-97h-99zM500 6v97h100v-97h-100zM500 -190v97h100v-97h-100zM300 -190v97h99v-97h-99zM100 -190v97h99v-97
h-99z" />
    <glyph glyph-name="SF160000" unicode="&#x2593;" 
d="M138 695h-138v97h138v-97zM338 695h-138v97h138v-97zM538 695h-138v97h138v-97zM138 499h-138v97h138v-97zM338 499h-138v97h138v-97zM538 499h-138v97h138v-97zM138 -92h-138v97h138v-97zM338 -92h-138v97h138v-97zM538 -92h-138v97h138v-97zM138 105h-138v97h138v-97z
M338 105h-138v97h138v-97zM538 105h-138v97h138v-97zM138 302h-138v97h138v-97zM338 302h-138v97h138v-97zM538 302h-138v97h138v-97zM200 597h-138v97h138v-97zM400 597h-138v97h138v-97zM600 597h-138v97h138v-97zM200 400h-138v97h138v-97zM400 400h-138v97h138v-97z
M600 400h-138v97h138v-97zM600 203h-138v97h138v-97zM400 203h-138v97h138v-97zM200 203h-138v97h138v-97zM200 6h-138v97h138v-97zM400 6h-138v97h138v-97zM600 6h-138v97h138v-97zM600 -190h-138v97h138v-97zM400 -190h-138v97h138v-97zM200 -190h-138v97h138v-97z
M138 -288h-138v97h138v-97zM338 -288h-138v97h138v-97zM538 -288h-138v97h138v-97z" />
    <glyph glyph-name="SF190000" unicode="&#x2561;" 
d="M0 144v72h264v72h-264v72h264v432h72v-1080h-72v432h-264z" />
    <glyph glyph-name="SF200000" unicode="&#x2562;" 
d="M0 216v72h192v504h72v-1080h-72v504h-192zM336 -288v1080h72v-1080h-72z" />
    <glyph glyph-name="SF210000" unicode="&#x2556;" 
d="M0 216v72h408v-576h-72v504h-72v-504h-72v504h-192z" />
    <glyph glyph-name="SF220000" unicode="&#x2555;" 
d="M336 360v-648h-72v432h-264v72h264v72h-264v72h336z" />
    <glyph glyph-name="SF230000" unicode="&#x2563;" 
d="M336 -288v1080h72v-1080h-72zM264 792v-504h-264v72h192v432h72zM264 216v-504h-72v432h-192v72h264z" />
    <glyph glyph-name="SF240000" unicode="&#x2551;" 
d="M192 -288v1080h72v-1080h-72zM336 -288v1080h72v-1080h-72z" />
    <glyph glyph-name="SF250000" unicode="&#x2557;" 
d="M0 144v72h264v-504h-72v432h-192zM0 288v72h408v-648h-72v576h-336z" />
    <glyph glyph-name="SF260000" unicode="&#x255d;" 
d="M0 144v72h336v576h72v-648h-408zM0 288v72h192v432h72v-504h-264z" />
    <glyph glyph-name="SF270000" unicode="&#x255c;" 
d="M408 792v-576h-408v72h192v504h72v-504h72v504h72z" />
    <glyph glyph-name="SF280000" unicode="&#x255b;" 
d="M336 792v-648h-336v72h264v72h-264v72h264v432h72z" />
    <glyph glyph-name="SF360000" unicode="&#x255e;" 
d="M600 216v-72h-264v-432h-72v1080h72v-432h264v-72h-264v-72h264z" />
    <glyph glyph-name="SF370000" unicode="&#x255f;" 
d="M192 -288v1080h72v-1080h-72zM336 -288v1080h72v-504h192v-72h-192v-504h-72z" />
    <glyph glyph-name="SF380000" unicode="&#x255a;" 
d="M192 144v648h72v-576h336v-72h-408zM336 288v504h72v-432h192v-72h-264z" />
    <glyph glyph-name="SF390000" unicode="&#x2554;" 
d="M192 -288v648h408v-72h-336v-576h-72zM336 -288v504h264v-72h-192v-432h-72z" />
    <glyph glyph-name="SF400000" unicode="&#x2569;" 
d="M0 144v72h600v-72h-600zM0 288v72h192v432h72v-504h-264zM336 288v504h72v-432h192v-72h-264z" />
    <glyph glyph-name="SF410000" unicode="&#x2566;" 
d="M0 144v72h264v-504h-72v432h-192zM0 288v72h600v-72h-600zM336 -288v504h264v-72h-192v-432h-72z" />
    <glyph glyph-name="SF420000" unicode="&#x2560;" 
d="M192 -288v1080h72v-1080h-72zM336 -288v504h264v-72h-192v-432h-72zM336 288v504h72v-432h192v-72h-264z" />
    <glyph glyph-name="SF430000" unicode="&#x2550;" 
d="M0 144v72h600v-72h-600zM0 288v72h600v-72h-600z" />
    <glyph glyph-name="SF440000" unicode="&#x256c;" 
d="M0 144v72h264v-504h-72v432h-192zM0 288v72h192v432h72v-504h-264zM336 -288v504h264v-72h-192v-432h-72zM336 288v504h72v-432h192v-72h-264z" />
    <glyph glyph-name="SF450000" unicode="&#x2567;" 
d="M0 144v72h600v-72h-600zM0 288v72h264v432h72v-432h264v-72h-600z" />
    <glyph glyph-name="SF460000" unicode="&#x2568;" 
d="M0 216v72h192v504h72v-504h72v504h72v-504h192v-72h-600z" />
    <glyph glyph-name="SF470000" unicode="&#x2564;" 
d="M0 144v72h600v-72h-264v-432h-72v432h-264zM0 288v72h600v-72h-600z" />
    <glyph glyph-name="SF480000" unicode="&#x2565;" 
d="M0 216v72h600v-72h-192v-504h-72v504h-72v-504h-72v504h-192z" />
    <glyph glyph-name="SF490000" unicode="&#x2559;" 
d="M192 216v576h72v-504h72v504h72v-504h192v-72h-408z" />
    <glyph glyph-name="SF500000" unicode="&#x2558;" 
d="M264 144v648h72v-432h264v-72h-264v-72h264v-72h-336z" />
    <glyph glyph-name="SF510000" unicode="&#x2552;" 
d="M264 -288v648h336v-72h-264v-72h264v-72h-264v-432h-72z" />
    <glyph glyph-name="SF520000" unicode="&#x2553;" 
d="M600 288v-72h-192v-504h-72v504h-72v-504h-72v576h408z" />
    <glyph glyph-name="SF530000" unicode="&#x256b;" 
d="M0 216v72h192v504h72v-504h72v504h72v-504h192v-72h-192v-504h-72v504h-72v-504h-72v504h-192z" />
    <glyph glyph-name="SF540000" unicode="&#x256a;" 
d="M0 144v72h264v72h-264v72h264v432h72v-432h264v-72h-264v-72h264v-72h-264v-432h-72v432h-264z" />
    <glyph glyph-name="SF570000" unicode="&#x2584;" 
d="M0 -288v540h600v-540h-600z" />
    <glyph glyph-name="SF580000" unicode="&#x258c;" 
d="M0 -288v1080h300v-1080h-300z" />
    <glyph glyph-name="SF590000" unicode="&#x2590;" 
d="M300 -288v1080h300v-1080h-300z" />
    <glyph glyph-name="SF600000" unicode="&#x2580;" 
d="M0 252v540h600v-540h-600z" />
    <glyph glyph-name="SF610000" unicode="&#x2588;" 
d="M0 -288v1080h600v-1080h-600z" />
    <glyph glyph-name="SM570001" unicode="&#x25d8;" 
d="M0 -288v1080h600v-1080h-600zM177 252c0 -69 54 -123 123 -123c67 0 123 54 123 123c0 67 -56 123 -123 123s-123 -56 -123 -123z" />
    <glyph glyph-name="SM590000" unicode="&#x25b6;" 
d="M63 106v508l474 -254z" />
    <glyph glyph-name="SM600000" unicode="&#x25b2;" 
d="M46 122l254 474l254 -474h-508z" />
    <glyph glyph-name="SM630000" unicode="&#x25c0;" 
d="M537 614v-508l-474 254z" />
    <glyph glyph-name="SM680000" unicode="&#x2310;" 
d="M74 0h-44v276h540v-44h-496v-232z" />
    <glyph glyph-name="SM690000" unicode="&#x263c;" 
d="M518 513l-88 -88c22 -25 32 -59 36 -90h124v-32h-125c-5 -36 -17 -62 -38 -84l88 -88l-23 -23l-87 87c-24 -23 -55 -37 -89 -42v-123h-32v123c-34 5 -66 16 -89 37l-87 -87l-22 23l87 87c-24 26 -36 56 -39 90h-124v32h124c-1 40 11 70 35 96l-87 87l22 24l88 -88
c26 20 62 29 92 31v125h32v-125c31 -1 61 -12 91 -37l88 87zM166 319c0 -75 50 -134 131 -134c83 0 137 59 137 134c-2 76 -55 134 -136 134c-82 -1 -132 -60 -132 -134z" />
    <glyph glyph-name="SM700000" 
d="M100 260v200h400v-200h-400z" />
    <glyph glyph-name="SM750000" unicode="&#x25cb;" 
d="M71 252c0 126 103 229 229 229s229 -103 229 -229s-103 -229 -229 -229s-229 103 -229 229zM113 252c0 -103 84 -187 187 -187s187 84 187 187c0 102 -84 187 -187 187s-187 -85 -187 -187z" />
    <glyph glyph-name="SM750002" unicode="&#x25d9;" 
d="M0 -288v1080h600v-1080h-600zM71 252c0 -126 103 -229 229 -229s229 103 229 229s-103 229 -229 229s-229 -103 -229 -229zM113 252c0 102 84 187 187 187s187 -85 187 -187c0 -103 -84 -187 -187 -187s-187 84 -187 187z" />
    <glyph glyph-name="SM760000" unicode="&#x2195;" 
d="M278 196v328c-23 -15 -98 -49 -123 -49c-8 0 -16 5 -16 14s14 17 20 21c46 31 95 77 123 125c3 6 10 21 18 21s15 -15 18 -21c28 -48 77 -94 123 -125c6 -4 20 -12 20 -21s-8 -14 -16 -14c-25 0 -100 34 -123 49v-328c23 15 98 49 123 49c8 0 16 -5 16 -14
s-14 -17 -20 -21c-46 -31 -95 -77 -123 -125c-3 -6 -10 -21 -18 -21s-15 15 -18 21c-28 48 -77 94 -123 125c-6 4 -20 12 -20 21s8 14 16 14c25 0 100 -34 123 -49z" />
    <glyph glyph-name="SM770000" unicode="&#x21a8;" 
d="M278 261v328c-23 -15 -98 -49 -123 -49c-8 0 -16 5 -16 14s14 17 20 21c46 31 95 77 123 125c3 6 10 21 18 21s15 -15 18 -21c28 -48 77 -94 123 -125c6 -4 20 -12 20 -21s-8 -14 -16 -14c-25 0 -100 34 -123 49v-328c23 15 98 49 123 49c8 0 16 -5 16 -14
s-14 -17 -20 -21c-46 -31 -95 -77 -123 -125c-3 -6 -10 -21 -18 -21s-15 15 -18 21c-28 48 -77 94 -123 125c-6 4 -20 12 -20 21s8 14 16 14c25 0 100 -34 123 -49zM461 44v-44h-322v44h322z" />
    <glyph glyph-name="SM790000" unicode="&#x2302;" 
d="M590 0h-580v406l290 169l290 -169v-406zM40 30h520v361l-260 152l-260 -152v-361z" />
    <glyph glyph-name="SP320000" unicode="&#x2219;" 
d="M314 300c6 27 33 50 60 50c28 0 46 -23 40 -50c-6 -28 -33 -50 -61 -50c-27 0 -45 22 -39 50z" />
    <glyph glyph-name="SS000000" unicode="&#x263a;" 
d="M10 330c0 162 127 290 290 290s290 -128 290 -290s-127 -290 -290 -290s-290 128 -290 290zM300 605c-154 0 -274 -121 -274 -275s120 -275 274 -275s274 121 274 275s-120 275 -274 275zM132 429c0 28 22 50 50 50s50 -22 50 -50s-22 -50 -50 -50s-50 22 -50 50z
M368 429c0 28 22 50 50 50s50 -22 50 -50s-22 -50 -50 -50s-50 22 -50 50zM300 110c-46 0 -102 16 -140 62c-34 40 -13 89 2 62c42 -76 96 -90 138 -90s96 14 138 90c15 27 36 -22 2 -62c-38 -46 -94 -62 -140 -62z" />
    <glyph glyph-name="SS010000" unicode="&#x263b;" 
d="M10 330c0 162 127 290 290 290s290 -128 290 -290s-127 -290 -290 -290s-290 128 -290 290zM132 429c0 -28 22 -50 50 -50s50 22 50 50s-22 50 -50 50s-50 -22 -50 -50zM368 429c0 -28 22 -50 50 -50s50 22 50 50s-22 50 -50 50s-50 -22 -50 -50zM300 110
c46 0 102 16 140 62c34 40 13 89 -2 62c-42 -76 -96 -90 -138 -90s-96 14 -138 90c-15 27 -36 -22 -2 -62c38 -46 94 -62 140 -62z" />
    <glyph glyph-name="SS260000" unicode="&#x2320;" 
d="M279 274v264c0 136 -12 508 185 508c77 0 136 -70 136 -139c0 -26 -9 -58 -41 -58c-72 0 -25 157 -106 157c-23 0 -55 -6 -82 -67c-27 -62 -48 -179 -48 -251v-414h-44z" />
    <glyph glyph-name="SS270000" unicode="&#x2321;" 
d="M321 538v-264c0 -136 12 -508 -185 -508c-77 0 -136 70 -136 139c0 26 9 58 41 58c72 0 25 -157 106 -157c23 0 55 6 82 67c27 62 48 179 48 251v414h44z" />
    <glyph glyph-name="SV040000" unicode="&#x25bc;" 
d="M46 596l254 -474l254 474h-508z" />
    <glyph glyph-name="Scaron" unicode="&#x160;" 
d="M525 152c-21 -101 -119 -164 -227 -164c-53 0 -107 14 -142 47l-15 -47l-35 5l30 101c8 28 9 56 9 83l38 5l-3 -37c-6 -73 17 -121 131 -121c66 0 152 34 171 121c42 198 -310 91 -263 310c22 104 129 157 223 157c43 0 87 -11 119 -34l16 46l36 -7l-28 -95
c-8 -28 -7 -55 -10 -83l-39 -5c4 29 12 63 4 89c-13 40 -57 53 -99 53c-72 0 -161 -32 -179 -116c-38 -180 311 -85 263 -308zM416 737l163 98l18 -23l-196 -145l-134 145l28 23z" />
    <glyph glyph-name="Sigma" unicode="&#x3a3;" 
d="M305 564l125 -247l-242 -281h266l-8 -36h-292l10 49l228 268l-120 236l10 47h289l-8 -36h-258z" />
    <glyph glyph-name="Tbar" unicode="&#x166;" 
d="M382 296l-55 -260h135l-8 -36h-309l8 36h135l55 260h-163l8 36h163l49 232h-95c-77 0 -91 -15 -108 -92l-14 -69h-39l42 197h483l-42 -197h-39l14 69c17 77 9 92 -68 92h-95l-49 -232h163l-8 -36h-163z" />
    <glyph glyph-name="Theta" unicode="&#x398;" 
d="M297 -12c-112 0 -240 98 -194 312c45 214 215 312 327 312s240 -98 195 -312c-46 -214 -216 -312 -328 -312zM305 24c91 0 235 77 278 276c42 199 -70 276 -161 276s-235 -77 -277 -276c-43 -199 69 -276 160 -276zM209 327h322l-9 -42h-322z" />
    <glyph glyph-name="Thorn" unicode="&#xde;" 
d="M191 36l112 528h-85l8 36h214l-8 -36h-90l-14 -64h132c84 0 140 -41 120 -135c-23 -104 -114 -151 -223 -151h-90l-37 -178h90l-8 -36h-214l8 36h85zM321 464l-46 -214h112c67 0 136 45 151 115c11 53 -18 99 -65 99h-152z" />
    <glyph glyph-name="Uacute" unicode="&#xda;" 
d="M494 600h184l-8 -36h-70l-83 -392c-29 -133 -100 -184 -220 -184s-169 51 -140 184l83 392h-70l8 36h184l-8 -36h-75l-81 -380c-25 -117 10 -160 107 -160s150 43 175 160l81 380h-75zM544 837l28 -45l-215 -127l-17 30z" />
    <glyph glyph-name="Ucircumflex" unicode="&#xdb;" 
d="M494 600h184l-8 -36h-70l-83 -392c-29 -133 -100 -184 -220 -184s-169 51 -140 184l83 392h-70l8 36h184l-8 -36h-75l-81 -380c-25 -117 10 -160 107 -160s150 43 175 160l81 380h-75zM422 765l-163 -98l-18 23l196 145l134 -145l-28 -23z" />
    <glyph glyph-name="Udieresis" unicode="&#xdc;" 
d="M494 600h184l-8 -36h-70l-83 -392c-29 -133 -100 -184 -220 -184s-169 51 -140 184l83 392h-70l8 36h184l-8 -36h-75l-81 -380c-25 -117 10 -160 107 -160s150 43 175 160l81 380h-75zM262 751c6 27 32 49 59 49s45 -22 39 -49s-33 -49 -60 -49s-44 22 -38 49zM478 751
c6 27 32 49 59 49s45 -22 39 -49s-33 -49 -60 -49s-44 22 -38 49z" />
    <glyph glyph-name="Ugrave" unicode="&#xd9;" 
d="M494 600h184l-8 -36h-70l-83 -392c-29 -133 -100 -184 -220 -184s-169 51 -140 184l83 392h-70l8 36h184l-8 -36h-75l-81 -380c-25 -117 10 -160 107 -160s150 43 175 160l81 380h-75zM330 837l144 -142l-29 -30l-161 127z" />
    <glyph glyph-name="Yacute" unicode="&#xdd;" 
d="M166 600h192l-8 -36h-91l105 -267l219 267h-93l8 36h192l-8 -36h-58l-249 -303l-47 -225h134l-8 -36h-307l8 36h134l47 225l-119 303h-59zM544 837l28 -45l-215 -127l-17 30z" />
    <glyph glyph-name="Ydieresis" unicode="&#x178;" 
d="M166 600h192l-8 -36h-91l105 -267l219 267h-93l8 36h192l-8 -36h-58l-249 -303l-47 -225h134l-8 -36h-307l8 36h134l47 225l-119 303h-59zM262 751c6 27 32 49 59 49s45 -22 39 -49s-33 -49 -60 -49s-44 22 -38 49zM478 751c6 27 32 49 59 49s45 -22 39 -49
s-33 -49 -60 -49s-44 22 -38 49z" />
    <glyph glyph-name="Zcaron" unicode="&#x17d;" 
d="M223 600h386l-8 -36l-466 -528h231c115 0 124 22 148 133l2 11h39l-38 -180h-434l8 36l467 528h-184c-115 0 -125 -22 -148 -133l-3 -11h-39zM416 737l163 98l18 -23l-196 -145l-134 145l28 23z" />
    <glyph glyph-name="aacute" unicode="&#xe1;" 
d="M409 0l8 38c-70 -29 -137 -50 -209 -50c-68 0 -124 31 -108 108c20 91 116 139 360 142l12 57c12 59 14 89 -68 89c-53 0 -111 -16 -161 -46l-12 -56h-39l18 83c63 33 137 55 201 55c98 0 121 -27 101 -119l-56 -265h85l-8 -36h-124zM426 79l26 123
c-237 -8 -297 -46 -310 -106c-11 -55 29 -72 77 -72c68 0 140 26 207 55zM544 645l28 -45l-215 -127l-17 30z" />
    <glyph glyph-name="acircumflex" unicode="&#xe2;" 
d="M409 0l8 38c-70 -29 -137 -50 -209 -50c-68 0 -124 31 -108 108c20 91 116 139 360 142l12 57c12 59 14 89 -68 89c-53 0 -111 -16 -161 -46l-12 -56h-39l18 83c63 33 137 55 201 55c98 0 121 -27 101 -119l-56 -265h85l-8 -36h-124zM426 79l26 123
c-237 -8 -297 -46 -310 -106c-11 -55 29 -72 77 -72c68 0 140 26 207 55zM422 573l-163 -98l-18 23l196 145l134 -145l-28 -23z" />
    <glyph glyph-name="adieresis" unicode="&#xe4;" 
d="M409 0l8 38c-70 -29 -137 -50 -209 -50c-68 0 -124 31 -108 108c20 91 116 139 360 142l12 57c12 59 14 89 -68 89c-53 0 -111 -16 -161 -46l-12 -56h-39l18 83c63 33 137 55 201 55c98 0 121 -27 101 -119l-56 -265h85l-8 -36h-124zM426 79l26 123
c-237 -8 -297 -46 -310 -106c-11 -55 29 -72 77 -72c68 0 140 26 207 55zM262 559c6 27 32 49 59 49s45 -22 39 -49s-33 -49 -60 -49s-44 22 -38 49zM478 559c6 27 32 49 59 49s45 -22 39 -49s-33 -49 -60 -49s-44 22 -38 49z" />
    <glyph glyph-name="agrave" unicode="&#xe0;" 
d="M409 0l8 38c-70 -29 -137 -50 -209 -50c-68 0 -124 31 -108 108c20 91 116 139 360 142l12 57c12 59 14 89 -68 89c-53 0 -111 -16 -161 -46l-12 -56h-39l18 83c63 33 137 55 201 55c98 0 121 -27 101 -119l-56 -265h85l-8 -36h-124zM426 79l26 123
c-237 -8 -297 -46 -310 -106c-11 -55 29 -72 77 -72c68 0 140 26 207 55zM330 645l144 -142l-29 -30l-161 127z" />
    <glyph glyph-name="alpha" unicode="&#x3b1;" 
d="M339 384c-100 0 -159 -101 -176 -180c-16 -79 -1 -180 99 -180s152 101 168 180c17 79 9 180 -91 180zM471 251l94 160h41l-112 -192l7 -222h-40l-7 173h-2c-36 -87 -98 -182 -202 -182c-116 0 -149 120 -129 216c21 96 105 216 221 216c100 0 136 -79 127 -169h2z" />
    <glyph glyph-name="apostrophereverse" unicode="&#x201b;" 
d="M455 450l-8 -38c-53 15 -107 64 -93 128c7 35 39 72 78 72c35 0 54 -26 46 -60c-6 -32 -35 -53 -66 -53c-5 0 -10 1 -15 3c5 -28 32 -44 58 -52z" />
    <glyph glyph-name="approxequal" unicode="&#x2248;" 
d="M551 509l32 -23c-29 -54 -84 -114 -150 -114c-59 0 -188 75 -240 75c-62 0 -91 -54 -119 -100l-31 23c30 53 76 121 145 121c82 0 188 -75 244 -75c52 0 98 49 119 93zM572 373l32 -23c-29 -54 -84 -114 -150 -114c-59 0 -188 75 -240 75c-62 0 -91 -54 -119 -100l-31 23
c30 53 76 121 145 121c82 0 188 -75 244 -75c52 0 98 49 119 93z" />
    <glyph glyph-name="aring" unicode="&#xe5;" 
d="M409 0l8 38c-70 -29 -137 -50 -209 -50c-68 0 -124 31 -108 108c20 91 116 139 360 142l12 57c12 59 14 89 -68 89c-53 0 -111 -16 -161 -46l-12 -56h-39l18 83c63 33 137 55 201 55c98 0 121 -27 101 -119l-56 -265h85l-8 -36h-124zM426 79l26 123
c-237 -8 -297 -46 -310 -106c-11 -55 29 -72 77 -72c68 0 140 26 207 55zM337 562c10 45 55 82 100 82s74 -37 64 -82c-9 -45 -54 -82 -99 -82s-74 37 -65 82zM379 562c-4 -22 7 -46 31 -46s45 24 49 46c5 23 -6 46 -30 46s-45 -23 -50 -46z" />
    <glyph glyph-name="arrowboth" unicode="&#x2194;" 
d="M464 338h-328c15 -23 49 -98 49 -123c0 -8 -5 -16 -14 -16s-17 14 -21 20c-31 46 -77 95 -125 123c-6 3 -21 10 -21 18s15 15 21 18c48 28 94 77 125 123c4 6 12 20 21 20s14 -8 14 -16c0 -25 -34 -100 -49 -123h328c-15 23 -49 98 -49 123c0 8 5 16 14 16s17 -14 21 -20
c31 -46 77 -95 125 -123c6 -3 21 -10 21 -18s-15 -15 -21 -18c-48 -28 -94 -77 -125 -123c-4 -6 -12 -20 -21 -20s-14 8 -14 16c0 25 34 100 49 123z" />
    <glyph glyph-name="arrowdown" unicode="&#x2193;" 
d="M322 656v-460c23 15 98 49 123 49c8 0 16 -5 16 -14s-14 -17 -20 -21c-46 -31 -95 -77 -123 -125c-3 -6 -10 -21 -18 -21s-15 15 -18 21c-28 48 -77 94 -123 125c-6 4 -20 12 -20 21s8 14 16 14c25 0 100 -34 123 -49v460h44z" />
    <glyph glyph-name="arrowleft" unicode="&#x2190;" 
d="M136 382h460v-44h-460c15 -23 49 -98 49 -123c0 -8 -5 -16 -14 -16s-17 14 -21 20c-31 46 -77 95 -125 123c-6 3 -21 10 -21 18s15 15 21 18c48 28 94 77 125 123c4 6 12 20 21 20s14 -8 14 -16c0 -25 -34 -100 -49 -123z" />
    <glyph glyph-name="arrowright" unicode="&#x2192;" 
d="M4 382h460c-15 23 -49 98 -49 123c0 8 5 16 14 16s17 -14 21 -20c31 -46 77 -95 125 -123c6 -3 21 -10 21 -18s-15 -15 -21 -18c-48 -28 -94 -77 -125 -123c-4 -6 -12 -20 -21 -20s-14 8 -14 16c0 25 34 100 49 123h-460v44z" />
    <glyph glyph-name="arrowup" unicode="&#x2191;" 
d="M322 524v-460h-44v460c-23 -15 -98 -49 -123 -49c-8 0 -16 5 -16 14s14 17 20 21c46 31 95 77 123 125c3 6 10 21 18 21s15 -15 18 -21c28 -48 77 -94 123 -125c6 -4 20 -12 20 -21s-8 -14 -16 -14c-25 0 -100 34 -123 49z" />
    <glyph glyph-name="atilde" unicode="&#xe3;" 
d="M409 0l8 38c-70 -29 -137 -50 -209 -50c-68 0 -124 31 -108 108c20 91 116 139 360 142l12 57c12 59 14 89 -68 89c-53 0 -111 -16 -161 -46l-12 -56h-39l18 83c63 33 137 55 201 55c98 0 121 -27 101 -119l-56 -265h85l-8 -36h-124zM426 79l26 123
c-237 -8 -297 -46 -310 -106c-11 -55 29 -72 77 -72c68 0 140 26 207 55zM298 512h-41c8 50 41 99 99 99c28 0 51 -14 72 -28s40 -27 59 -27c31 0 46 34 52 59h43c-9 -52 -44 -101 -103 -101c-27 0 -52 17 -72 31c-15 10 -36 24 -57 24c-32 0 -48 -31 -52 -57z" />
    <glyph glyph-name="brokenbar" unicode="&#xa6;" 
d="M278 792h44v-360h-44v360zM278 72h44v-360h-44v360z" />
    <glyph glyph-name="caretinverted" unicode="&#x2304;" 
d="M110 680h50l140 -275l137 275h50l-161 -323h-52z" />
    <glyph glyph-name="ccedilla" unicode="&#xe7;" 
d="M499 65l6 -33c-58 -28 -133 -44 -193 -44c-125 0 -203 83 -175 212c27 128 139 220 267 220c52 0 115 -16 130 -65l-19 -91h-36l4 18c15 73 -19 102 -90 102c-104 0 -192 -76 -213 -178c-23 -107 35 -182 142 -182c55 0 122 16 177 41zM282 9h37l-31 -77h19
c49 0 89 -25 78 -79c-14 -64 -82 -88 -137 -88c-34 0 -73 8 -99 25l8 37c28 -15 61 -26 95 -26c33 0 82 13 91 53c7 35 -36 41 -62 41l-49 -3z" />
    <glyph glyph-name="club" unicode="&#x2663;" 
d="M503 0h-406l6 21c109 25 192 72 192 275h-2c-21 -64 -80 -138 -153 -138c-88 0 -137 83 -137 162c0 64 40 160 109 160c35 0 62 -15 86 -30c-19 37 -32 64 -32 106c0 72 48 156 134 156s134 -84 134 -156c0 -42 -13 -69 -32 -106c24 15 51 30 86 30
c69 0 109 -96 109 -160c0 -79 -49 -162 -137 -162c-73 0 -132 74 -153 138h-2c0 -203 83 -250 192 -275z" />
    <glyph glyph-name="copyright" unicode="&#xa9;" 
d="M297 -12c-118 0 -253 78 -203 312s218 312 336 312s254 -78 204 -312s-219 -312 -337 -312zM305 24c100 0 243 69 287 276s-70 276 -170 276s-242 -69 -286 -276s69 -276 169 -276zM439 240h19l-13 -60c-36 -30 -75 -58 -122 -58c-58 0 -114 50 -86 182
c27 130 103 171 163 171c32 0 59 -7 76 -23l11 12l17 -6c-10 -14 -14 -33 -18 -52l-6 -34h-21c10 51 -12 74 -64 74c-68 0 -109 -74 -124 -144c-14 -69 -7 -151 60 -151c53 0 96 33 108 89z" />
    <glyph glyph-name="dbar" unicode="&#x111;" 
d="M409 67l60 281c-28 22 -63 36 -102 36c-94 0 -184 -72 -207 -180c-19 -91 21 -180 119 -180c45 0 90 16 130 43zM395 0l6 27c-39 -24 -94 -39 -134 -39c-115 0 -173 102 -149 213c24 116 126 219 248 219c43 0 78 -10 112 -29l21 99h-134l8 36h134l14 66
c-29 -6 -62 -14 -98 -16l2 36c34 1 82 6 109 31c7 7 13 13 24 13c14 0 10 -25 7 -39l-19 -91h80l-8 -36h-80l-96 -454h80l-8 -36h-119z" />
    <glyph glyph-name="degree" unicode="&#xb0;" 
d="M107 549c0 107 86 193 193 193s193 -86 193 -193c0 -106 -86 -193 -193 -193s-193 87 -193 193zM149 549c0 -83 68 -151 151 -151s151 68 151 151s-68 151 -151 151s-151 -68 -151 -151z" />
    <glyph glyph-name="delta" unicode="&#x3b4;" 
d="M183 192c-19 -90 27 -168 120 -168c97 0 177 79 197 173c20 96 -29 166 -125 166c-99 0 -172 -77 -192 -171zM421 392l-158 143l14 65h305l-8 -36h-287l161 -149c62 -57 115 -117 94 -217c-24 -115 -131 -210 -247 -210c-111 0 -177 96 -154 205c23 108 123 206 236 206
c16 0 31 -2 42 -9z" />
    <glyph glyph-name="deutschmark" 
d="M44 36l112 528h-26l8 36h77c150 3 148 -137 111 -311c-51 -240 -127 -289 -224 -289h-92l8 36h26zM195 564l-112 -528h36c84 -8 128 76 162 237c46 215 26 291 -68 291h-18zM690 564l-112 -528h20l-8 -36h-91l8 36h32l107 507h-2l-166 -358h-2l-16 358h1h-2l-107 -507h33
l-8 -36h-97l8 36h25l112 528h-25l8 36h82l9 -307h2l141 307h76l-8 -36h-20z" />
    <glyph glyph-name="diamond" unicode="&#x2666;" 
d="M300 712c84 -129 188 -249 297 -362c-109 -113 -213 -233 -297 -362c-84 129 -188 249 -297 362c109 113 213 233 297 362z" />
    <glyph glyph-name="diamondopen" unicode="&#x2662;" 
d="M300 712c84 -129 188 -249 297 -362c-109 -113 -213 -233 -297 -362c-84 129 -188 249 -297 362c109 113 213 233 297 362zM300 11c76 119 175 232 277 339c-102 107 -201 220 -277 339c-76 -119 -175 -232 -277 -339c102 -107 201 -220 277 -339z" />
    <glyph glyph-name="divide" unicode="&#xf7;" 
d="M566 382v-44h-532v44h532zM343 205c0 -24 -19 -43 -43 -43s-43 19 -43 43s19 43 43 43s43 -19 43 -43zM343 515c0 -24 -19 -43 -43 -43s-43 19 -43 43s19 43 43 43s43 -19 43 -43z" />
    <glyph glyph-name="eacute" unicode="&#xe9;" 
d="M544 186h-368c-20 -112 55 -162 162 -162c64 0 122 18 191 44l6 -32c-71 -31 -148 -48 -219 -48c-123 0 -208 76 -181 206c27 124 138 226 265 226c121 0 180 -78 154 -198zM186 222h327c25 95 -31 162 -120 162s-179 -69 -207 -162zM544 645l28 -45l-215 -127l-17 30z
" />
    <glyph glyph-name="ecircumflex" unicode="&#xea;" 
d="M544 186h-368c-20 -112 55 -162 162 -162c64 0 122 18 191 44l6 -32c-71 -31 -148 -48 -219 -48c-123 0 -208 76 -181 206c27 124 138 226 265 226c121 0 180 -78 154 -198zM186 222h327c25 95 -31 162 -120 162s-179 -69 -207 -162zM422 573l-163 -98l-18 23l196 145
l134 -145l-28 -23z" />
    <glyph glyph-name="edieresis" unicode="&#xeb;" 
d="M544 186h-368c-20 -112 55 -162 162 -162c64 0 122 18 191 44l6 -32c-71 -31 -148 -48 -219 -48c-123 0 -208 76 -181 206c27 124 138 226 265 226c121 0 180 -78 154 -198zM186 222h327c25 95 -31 162 -120 162s-179 -69 -207 -162zM262 559c6 27 32 49 59 49
s45 -22 39 -49s-33 -49 -60 -49s-44 22 -38 49zM478 559c6 27 32 49 59 49s45 -22 39 -49s-33 -49 -60 -49s-44 22 -38 49z" />
    <glyph glyph-name="egrave" unicode="&#xe8;" 
d="M544 186h-368c-20 -112 55 -162 162 -162c64 0 122 18 191 44l6 -32c-71 -31 -148 -48 -219 -48c-123 0 -208 76 -181 206c27 124 138 226 265 226c121 0 180 -78 154 -198zM186 222h327c25 95 -31 162 -120 162s-179 -69 -207 -162zM330 645l144 -142l-29 -30l-161 127z
" />
    <glyph glyph-name="eng" unicode="&#x14b;" 
d="M224 183l-31 -147h70l-8 -36h-179l8 36h70l71 338c-29 -6 -49 -14 -79 -15l2 35c28 1 64 6 90 31c8 7 14 13 25 13c14 0 10 -25 7 -39l-17 -79h2c41 63 104 100 169 100c89 0 147 -44 128 -134l-60 -281c-16 -75 -89 -85 -156 -85l8 36c62 0 101 10 113 69l50 236
c20 94 -29 123 -88 123c-98 0 -175 -107 -195 -201z" />
    <glyph glyph-name="epsilon" unicode="&#x3b5;" 
d="M362 242h20l-7 -36h-32c-62 0 -114 -33 -127 -95c-12 -55 43 -87 102 -87c45 0 91 9 131 26l5 -33c-45 -21 -102 -29 -149 -29c-86 0 -148 47 -131 125c11 52 50 92 110 111c-37 15 -51 51 -43 87c13 61 74 109 146 109c46 0 75 -15 90 -36l-30 -24c-16 12 -33 24 -60 24
c-46 0 -91 -10 -103 -70c-12 -55 21 -72 78 -72z" />
    <glyph glyph-name="equivalence" unicode="&#x2261;" 
d="M566 516v-44h-532v44h532zM566 382v-44h-532v44h532zM566 248v-44h-532v44h532z" />
    <glyph glyph-name="eth" unicode="&#xf0;" 
d="M183 192c-19 -90 27 -168 120 -168c97 0 177 79 197 173c20 96 -29 166 -125 166c-99 0 -172 -77 -192 -171zM353 547l110 65l12 -27l-103 -61l81 -99c56 -69 110 -127 89 -227c-24 -115 -131 -210 -247 -210c-111 0 -177 96 -154 205c23 108 123 206 236 206
c16 0 31 -2 50 -2l-88 108l-119 -71l-12 27l113 67l-49 60l29 24z" />
    <glyph glyph-name="exclamdbl" unicode="&#x203c;" 
d="M228 159h-30l54 408c5 26 31 45 57 45s44 -19 39 -45zM135 42c6 29 35 53 64 53c30 0 49 -24 43 -53c-6 -30 -36 -54 -66 -54c-29 0 -47 24 -41 54zM468 159h-30l54 408c5 26 31 45 57 45s44 -19 39 -45zM375 42c6 29 35 53 64 53c30 0 49 -24 43 -53
c-6 -30 -36 -54 -66 -54c-29 0 -47 24 -41 54z" />
    <glyph glyph-name="female" unicode="&#x2640;" 
d="M318 0h-36v171h-126v36h126v109c-87 15 -144 84 -144 164c0 89 73 160 162 160c91 0 162 -71 162 -160c0 -80 -55 -149 -144 -164v-109h126v-36h-126v-171zM170 478c0 -73 57 -130 129 -130c74 0 131 57 131 130s-57 130 -131 130c-72 0 -129 -57 -129 -130z" />
    <glyph glyph-name="filledbox" unicode="&#x25a0;" 
d="M100 100v400h400v-400h-400z" />
    <glyph glyph-name="fiveeighths" unicode="&#x215d;" 
d="M360 600l-6 -28h-127l-24 -77l33 2c62 0 108 -35 95 -97c-17 -78 -85 -124 -160 -124c-28 0 -52 5 -77 15l14 27c21 -8 41 -14 66 -14c57 0 108 32 121 92c9 42 -16 73 -64 73c-23 0 -47 -4 -71 -11l43 142h157zM551 629l23 -16l-411 -640l-23 16zM453 -12
c-52 0 -104 36 -92 93c9 43 47 74 88 84c-29 16 -48 46 -40 83c11 54 70 76 116 76c47 0 95 -22 84 -76c-8 -37 -41 -67 -76 -82c37 -11 61 -42 52 -85c-12 -58 -80 -93 -132 -93zM519 296c-30 0 -68 -13 -75 -49c-9 -40 21 -56 50 -69c35 13 71 29 80 69
c7 36 -24 49 -55 49zM487 148c-36 0 -81 -22 -90 -64c-9 -40 25 -68 62 -68s83 28 92 68c9 42 -28 64 -64 64z" />
    <glyph glyph-name="franc" unicode="&#x20a3;" 
d="M20 0l8 36h58l112 528h-58l8 36h347l-29 -134h-39l3 15c14 65 10 83 -63 83h-130l-50 -234h109l16 75h39l-42 -197h-39l18 86h-109l-54 -258h113l-8 -36h-210zM461 190l-32 -154h85l-8 -36h-176l8 36h52l51 241c-16 -4 -31 -10 -51 -11v26c20 1 45 9 61 23
c5 6 12 10 23 10c12 0 12 -19 10 -29l-12 -52l2 -2c26 31 62 70 116 70c29 0 41 -22 44 -60l-38 -12c-1 17 -4 36 -22 36c-41 0 -90 -56 -113 -86z" />
    <glyph glyph-name="greaterequal" unicode="&#x2265;" 
d="M124 720l378 -288l-378 -288l-26 35l334 253l-334 253zM98 0v44h404v-44h-404z" />
    <glyph glyph-name="hbar" unicode="&#x127;" 
d="M303 617l-19 -91h134l-8 -36h-134l-27 -128c58 28 129 58 188 58c87 0 122 -39 95 -167l-46 -217h70l-8 -36h-187l8 36h78l43 204c15 69 31 144 -61 144c-63 0 -130 -31 -189 -64l-60 -284h78l-8 -36h-187l8 36h70l96 454h-84l8 36h84l14 66c-29 -6 -62 -14 -98 -16l2 36
c34 1 82 6 109 31c7 7 13 13 24 13c14 0 10 -25 7 -39z" />
    <glyph glyph-name="heart" unicode="&#x2665;" 
d="M301 -12h-2c-29 120 -106 224 -180 322c-53 72 -116 161 -116 253c0 83 59 149 144 149c79 0 137 -73 152 -145h2c15 72 73 145 152 145c85 0 144 -66 144 -149c0 -92 -63 -181 -116 -253c-74 -98 -151 -202 -180 -322z" />
    <glyph glyph-name="iacute" unicode="&#xed;" 
d="M89 0l8 36h203l71 338c-29 -6 -121 -14 -196 -16l2 36c73 1 181 6 207 31c8 7 14 13 25 13c14 0 10 -25 7 -39l-77 -363h180l-8 -36h-422zM544 645l28 -45l-215 -127l-17 30z" />
    <glyph glyph-name="icircumflex" unicode="&#xee;" 
d="M89 0l8 36h203l71 338c-29 -6 -121 -14 -196 -16l2 36c73 1 181 6 207 31c8 7 14 13 25 13c14 0 10 -25 7 -39l-77 -363h180l-8 -36h-422zM422 573l-163 -98l-18 23l196 145l134 -145l-28 -23z" />
    <glyph glyph-name="idieresis" unicode="&#xef;" 
d="M89 0l8 36h203l71 338c-29 -6 -121 -14 -196 -16l2 36c73 1 181 6 207 31c8 7 14 13 25 13c14 0 10 -25 7 -39l-77 -363h180l-8 -36h-422zM262 559c6 27 32 49 59 49s45 -22 39 -49s-33 -49 -60 -49s-44 22 -38 49zM478 559c6 27 32 49 59 49s45 -22 39 -49
s-33 -49 -60 -49s-44 22 -38 49z" />
    <glyph glyph-name="igrave" unicode="&#xec;" 
d="M89 0l8 36h203l71 338c-29 -6 -121 -14 -196 -16l2 36c73 1 181 6 207 31c8 7 14 13 25 13c14 0 10 -25 7 -39l-77 -363h180l-8 -36h-422zM330 645l144 -142l-29 -30l-161 127z" />
    <glyph glyph-name="ij" unicode="&#x133;" 
d="M47 0l8 36h119l71 338c-29 -6 -81 -14 -135 -16l2 36c52 1 120 6 146 31c8 7 14 13 25 13c14 0 10 -25 7 -39l-77 -363h120l-8 -36h-278zM348 558c-7 -30 -36 -54 -66 -54s-49 24 -42 54c6 30 35 54 65 54s49 -24 43 -54zM587 399l-87 -407c-20 -96 -36 -208 -168 -208
c-69 0 -135 18 -186 55l34 33c42 -31 97 -52 156 -52c94 0 106 79 120 149l86 405c-29 -6 -81 -14 -135 -16l2 36c52 1 120 6 146 31c8 7 14 13 25 13c14 0 10 -25 7 -39zM657 558c-7 -30 -36 -54 -66 -54s-49 24 -42 54c6 30 35 54 65 54s49 -24 43 -54z" />
    <glyph glyph-name="infinity" unicode="&#x221e;" 
d="M46 359c0 -54 21 -119 85 -119c59 0 112 71 144 115c-29 50 -77 117 -141 117c-62 0 -88 -59 -88 -113zM554 363c0 54 -26 113 -88 113c-64 0 -112 -67 -141 -117c32 -44 85 -115 144 -115c64 0 85 65 85 119zM300 320c-40 -61 -89 -120 -169 -120
c-91 0 -129 80 -129 160s38 160 129 160c80 0 129 -59 169 -120c40 61 89 120 169 120c91 0 129 -80 129 -160s-38 -160 -129 -160c-80 0 -129 59 -169 120z" />
    <glyph glyph-name="intersection" unicode="&#x2229;" 
d="M590 0h-44v444c0 137 -121 251 -246 251s-246 -114 -246 -251v-444h-44v433c0 169 125 301 290 301s290 -132 290 -301v-433z" />
    <glyph glyph-name="kgreenlandic" unicode="&#x138;" 
d="M299 487l-44 -203l282 208c23 18 47 34 62 34h18l-8 -36c-21 0 -46 -19 -79 -44l-178 -132l131 -278h73l-8 -36h-176l8 36h57l-120 256l-71 -53l-43 -203h77l-8 -36h-214l8 36h98l90 426c-29 -6 -62 -14 -97 -16l1 36c35 1 83 6 109 31c8 7 14 13 25 13c14 0 9 -25 7 -39
z" />
    <glyph glyph-name="ldot" unicode="&#x140;" 
d="M551 360c7 33 39 60 72 60s55 -27 48 -60s-40 -60 -73 -60s-54 27 -47 60zM361 617l-123 -581h152l-8 -36h-344l8 36h153l118 556c-29 -6 -90 -14 -135 -16l2 36c43 1 119 6 146 31c7 7 13 13 24 13c14 0 10 -25 7 -39z" />
    <glyph glyph-name="lessequal" unicode="&#x2264;" 
d="M98 432l378 288l26 -35l-334 -253l334 -253l-26 -35zM98 0v44h404v-44h-404z" />
    <glyph glyph-name="logicalnot" unicode="&#xac;" 
d="M522 173v232h-488v44h532v-276h-44z" />
    <glyph glyph-name="male" unicode="&#x2642;" 
d="M305 140c51 52 51 132 0 183c-52 53 -133 53 -184 1c-52 -52 -52 -132 1 -184c50 -51 131 -51 183 0zM315 359l170 171l-104 38v2h170v-170h-2l-39 104l-170 -170c51 -72 42 -161 -14 -218c-63 -63 -165 -61 -228 2c-64 64 -64 164 -1 227c56 57 144 67 218 14z" />
    <glyph glyph-name="minus" unicode="&#x2212;" 
d="M566 382v-44h-532v44h532z" />
    <glyph glyph-name="monospacedash" unicode="&#x2014;" 
d="M0 216v72h600v-72h-600z" />
    <glyph glyph-name="mu" unicode="&#x3bc;" 
d="M467 187l47 221h39l-87 -408h-39l15 72h-2c-30 -47 -85 -84 -141 -84c-57 0 -98 31 -110 80h-2l-56 -266h-39l129 606h39l-47 -221c-22 -102 29 -163 88 -163c81 0 146 69 166 163z" />
    <glyph glyph-name="multiply" unicode="&#xd7;" 
d="M566 126l-31 -32l-235 235l-235 -235l-31 32l235 234l-235 235l31 31l235 -235l235 235l31 -31l-235 -235z" />
    <glyph glyph-name="musicalnote" unicode="&#x266a;" 
d="M286 181v531h44v-63l23 -29l39 -46c62 -75 102 -147 102 -246c0 -58 -21 -122 -59 -166h-29c29 49 43 96 43 154c0 73 -39 168 -119 181v-314c0 -117 -67 -173 -155 -173c-41 0 -69 22 -69 64c0 64 62 118 124 118c18 0 40 -4 56 -11z" />
    <glyph glyph-name="musicalnotedbl" unicode="&#x266b;" 
d="M545 202v280l-309 -93v-241c0 -121 -67 -175 -156 -175c-41 0 -69 22 -69 63c0 65 63 118 125 118c18 0 40 -4 56 -11v469l397 112v-517c0 -121 -67 -175 -156 -175c-41 0 -69 22 -69 63c0 65 63 118 125 118c18 0 40 -4 56 -11zM236 468l309 94v72l-309 -94v-72z" />
    <glyph glyph-name="napostrophe" unicode="&#x149;" 
d="M120 412l8 38c28 8 63 24 80 52c-7 -2 -12 -3 -17 -3c-31 0 -50 21 -44 53c8 34 37 60 72 60c39 0 55 -37 48 -72c-14 -64 -88 -113 -147 -128zM305 320l-60 -284h66l-8 -36h-162l8 36h57l71 338c-21 -6 -38 -14 -65 -15l3 35c24 1 56 6 80 31c7 7 12 13 22 13
c12 0 8 -25 5 -39l-8 -37c52 28 115 58 167 58c77 0 107 -39 80 -167l-46 -217h57l-8 -36h-158l8 36h62l43 204c15 69 31 144 -46 144c-55 0 -115 -31 -168 -64z" />
    <glyph glyph-name="nsuperior" unicode="&#x207f;" 
d="M359 556l-27 -130h34l-6 -24h-94l6 24h30l33 156c-10 -3 -19 -5 -35 -6l2 23c14 0 33 3 46 15c3 4 7 7 12 7c7 0 10 -13 9 -20l-4 -18c24 14 59 29 89 29c43 0 66 -20 52 -84l-21 -102h30l-6 -24h-94l6 24h34l20 96c7 34 6 66 -27 66c-31 0 -64 -15 -89 -32z" />
    <glyph glyph-name="ntilde" unicode="&#xf1;" 
d="M240 320l-60 -284h78l-8 -36h-187l8 36h70l71 338c-29 -6 -49 -14 -79 -15l2 35c28 1 64 6 90 31c8 7 14 13 25 13c14 0 10 -25 7 -39l-8 -37c58 28 129 58 188 58c87 0 122 -39 95 -167l-46 -217h70l-8 -36h-187l8 36h78l43 204c15 69 31 144 -61 144
c-63 0 -130 -31 -189 -64zM298 512h-41c8 50 41 99 99 99c28 0 51 -14 72 -28s40 -27 59 -27c31 0 46 34 52 59h43c-9 -52 -44 -101 -103 -101c-27 0 -52 17 -72 31c-15 10 -36 24 -57 24c-32 0 -48 -31 -52 -57z" />
    <glyph glyph-name="oacute" unicode="&#xf3;" 
d="M297 -12c-122 0 -189 96 -164 216c26 120 134 216 256 216s190 -96 164 -216c-25 -120 -134 -216 -256 -216zM305 24c101 0 186 83 206 180c21 97 -28 180 -129 180s-186 -83 -207 -180c-20 -97 29 -180 130 -180zM544 645l28 -45l-215 -127l-17 30z" />
    <glyph glyph-name="ocircumflex" unicode="&#xf4;" 
d="M297 -12c-122 0 -189 96 -164 216c26 120 134 216 256 216s190 -96 164 -216c-25 -120 -134 -216 -256 -216zM305 24c101 0 186 83 206 180c21 97 -28 180 -129 180s-186 -83 -207 -180c-20 -97 29 -180 130 -180zM422 573l-163 -98l-18 23l196 145l134 -145l-28 -23z
" />
    <glyph glyph-name="odieresis" unicode="&#xf6;" 
d="M297 -12c-122 0 -189 96 -164 216c26 120 134 216 256 216s190 -96 164 -216c-25 -120 -134 -216 -256 -216zM305 24c101 0 186 83 206 180c21 97 -28 180 -129 180s-186 -83 -207 -180c-20 -97 29 -180 130 -180zM262 559c6 27 32 49 59 49s45 -22 39 -49
s-33 -49 -60 -49s-44 22 -38 49zM478 559c6 27 32 49 59 49s45 -22 39 -49s-33 -49 -60 -49s-44 22 -38 49z" />
    <glyph glyph-name="ograve" unicode="&#xf2;" 
d="M297 -12c-122 0 -189 96 -164 216c26 120 134 216 256 216s190 -96 164 -216c-25 -120 -134 -216 -256 -216zM305 24c101 0 186 83 206 180c21 97 -28 180 -129 180s-186 -83 -207 -180c-20 -97 29 -180 130 -180zM330 645l144 -142l-29 -30l-161 127z" />
    <glyph glyph-name="oneeighth" unicode="&#x215b;" 
d="M552 629l23 -16l-411 -640l-23 16zM436 -12c-52 0 -104 36 -92 93c9 43 47 74 88 84c-29 16 -48 46 -40 83c11 54 70 76 116 76c47 0 95 -22 84 -76c-8 -37 -41 -67 -76 -82c37 -11 61 -42 52 -85c-12 -58 -80 -93 -132 -93zM502 296c-30 0 -68 -13 -75 -49
c-9 -40 21 -56 50 -69c35 13 71 29 80 69c7 36 -24 49 -55 49zM470 148c-36 0 -81 -22 -90 -64c-9 -40 25 -68 62 -68s83 28 92 68c9 42 -28 64 -64 64zM283 581l-57 -271h74l-6 -28h-186l6 28h77l55 257c-18 -4 -37 -6 -56 -6h-17l1 28h16c19 0 52 1 69 16c4 4 9 7 15 7
c18 0 12 -18 9 -31z" />
    <glyph glyph-name="onehalf" unicode="&#xbd;" 
d="M546 629l23 -16l-411 -640l-23 16zM541 64l28 -7l-39 -57h-198l6 28l17 15c53 47 175 134 189 203c7 33 -17 56 -49 56c-19 0 -38 -7 -55 -28c-3 -16 -16 -36 -36 -36c-10 0 -13 8 -11 17c10 47 68 75 109 75c47 0 89 -31 78 -82c-9 -40 -35 -74 -67 -103l-133 -117h134z
M283 581l-57 -271h74l-6 -28h-186l6 28h77l55 257c-18 -4 -37 -6 -56 -6h-17l1 28h16c19 0 52 1 69 16c4 4 9 7 15 7c18 0 12 -18 9 -31z" />
    <glyph glyph-name="onequarter" unicode="&#xbc;" 
d="M564 629l23 -16l-411 -640l-23 16zM527 227h35l-24 -114h46l-6 -28h-46l-12 -57h46l-6 -28h-135l6 28h54l12 57h-161l6 28c61 74 120 151 160 236l31 -9c-39 -82 -98 -156 -158 -227h128zM283 581l-57 -271h74l-6 -28h-186l6 28h77l55 257c-18 -4 -37 -6 -56 -6h-17l1 28
h16c19 0 52 1 69 16c4 4 9 7 15 7c18 0 12 -18 9 -31z" />
    <glyph glyph-name="onesuperior" unicode="&#xb9;" 
d="M442 581l-57 -271h74l-6 -28h-186l6 28h77l55 257c-18 -4 -37 -6 -56 -6h-17l1 28h16c19 0 52 1 69 16c4 4 9 7 15 7c18 0 12 -18 9 -31z" />
    <glyph glyph-name="otilde" unicode="&#xf5;" 
d="M297 -12c-122 0 -189 96 -164 216c26 120 134 216 256 216s190 -96 164 -216c-25 -120 -134 -216 -256 -216zM305 24c101 0 186 83 206 180c21 97 -28 180 -129 180s-186 -83 -207 -180c-20 -97 29 -180 130 -180zM298 512h-41c8 50 41 99 99 99c28 0 51 -14 72 -28
s40 -27 59 -27c31 0 46 34 52 59h43c-9 -52 -44 -101 -103 -101c-27 0 -52 17 -72 31c-15 10 -36 24 -57 24c-32 0 -48 -31 -52 -57z" />
    <glyph glyph-name="overscore" unicode="&#xaf;" 
d="M450 728h-300v36h300v-36z" />
    <glyph glyph-name="phi" unicode="&#x3c6;" 
d="M394 353l-63 -297c91 7 163 72 179 148c17 76 -28 141 -116 149zM373 438h39l-11 -50c111 -7 172 -86 151 -184c-20 -98 -115 -177 -229 -184l-10 -50h-39l10 50c-110 7 -171 87 -151 184c21 97 116 177 229 184zM292 56l63 296c-92 -8 -164 -73 -180 -148
s29 -140 117 -148z" />
    <glyph glyph-name="pi" unicode="&#x3c0;" 
d="M186 408h402l-8 -36h-79l-79 -372h-39l79 372h-166l-79 -372h-39l79 372h-79z" />
    <glyph glyph-name="plusminus" unicode="&#xb1;" 
d="M566 429v-44h-244v-244h-44v244h-244v44h244v244h44v-244h244zM566 91v-44h-532v44h532z" />
    <glyph glyph-name="radical" unicode="&#x221a;" 
d="M3 433h142l79 -298l194 662h179v-44h-147l-226 -764l-115 400h-106v44z" />
    <glyph glyph-name="registered" unicode="&#xae;" 
d="M485 148l-5 -26h-57l-77 167h-53l-30 -141h54l-5 -26h-124l5 26h38l63 295l-37 4l6 26l52 -2c31 -1 62 4 92 4c44 0 86 -32 73 -92c-10 -50 -49 -80 -97 -90l66 -145h36zM326 443l-27 -130h30c53 0 103 7 116 68c10 45 -12 65 -52 65c-21 0 -54 -3 -67 -3zM305 24
c100 0 243 69 287 276s-70 276 -170 276s-242 -69 -286 -276s69 -276 169 -276zM297 -12c-118 0 -253 78 -203 312s218 312 336 312s254 -78 204 -312s-219 -312 -337 -312z" />
    <glyph glyph-name="scaron" unicode="&#x161;" 
d="M522 392l21 47l32 -6c-14 -31 -25 -62 -32 -93l-7 -56h-37v9c-1 66 -23 91 -115 91c-55 0 -136 -20 -150 -88c-27 -126 314 -23 278 -191c-20 -95 -135 -117 -210 -117c-49 0 -110 10 -143 41l-22 -42l-29 9c12 25 21 50 26 76c5 23 8 47 5 68h38
c-4 -83 28 -116 129 -116c55 0 150 14 164 79c27 129 -314 23 -279 189c18 86 113 128 193 128c51 0 95 -11 138 -28zM416 545l163 98l18 -23l-196 -145l-134 145l28 23z" />
    <glyph glyph-name="seveneighths" unicode="&#x215e;" 
d="M168 600h206l-206 -318h-36l190 289h-161zM518 629l23 -16l-411 -640l-23 16zM444 -12c-52 0 -104 36 -92 93c9 43 47 74 88 84c-29 16 -48 46 -40 83c11 54 70 76 116 76c47 0 95 -22 84 -76c-8 -37 -41 -67 -76 -82c37 -11 61 -42 52 -85c-12 -58 -80 -93 -132 -93z
M510 296c-30 0 -68 -13 -75 -49c-9 -40 21 -56 50 -69c35 13 71 29 80 69c7 36 -24 49 -55 49zM478 148c-36 0 -81 -22 -90 -64c-9 -40 25 -68 62 -68s83 28 92 68c9 42 -28 64 -64 64z" />
    <glyph glyph-name="sigma" unicode="&#x3c3;" 
d="M641 420l-6 -30l-201 10l-2 -2c93 -13 127 -106 108 -196c-23 -109 -129 -214 -243 -214s-174 105 -151 214c26 123 141 218 249 218h246zM189 208c-20 -94 18 -184 116 -184s174 90 194 184c20 93 -20 176 -117 176c-98 0 -173 -84 -193 -176z" />
    <glyph glyph-name="spade" unicode="&#x2660;" 
d="M542 0h-484l4 22c157 5 229 90 229 247h-2c-28 -63 -81 -110 -155 -110c-70 0 -131 56 -131 128c0 86 73 143 133 195c77 66 139 127 163 230h2c24 -103 86 -164 163 -230c60 -52 133 -109 133 -195c0 -72 -61 -128 -131 -128c-74 0 -127 47 -155 110h-2
c0 -157 72 -242 229 -247z" />
    <glyph glyph-name="tau" unicode="&#x3c4;" 
d="M553 420l-7 -36h-145l-82 -384h-39l82 384h-28c-39 0 -80 4 -119 -8l7 32l18 6c26 8 46 6 71 6h242z" />
    <glyph glyph-name="tbar" unicode="&#x167;" 
d="M329 372l-19 -92h238l-8 -36h-238l-19 -91c-13 -60 -31 -129 49 -129c54 0 123 19 179 31l4 -34c-64 -16 -133 -33 -197 -33c-33 0 -70 14 -81 43c-14 33 -2 83 7 122l19 91h-147l8 36h147l19 92h-147l8 36h147l24 115h39l-24 -115h238l-8 -36h-238z" />
    <glyph glyph-name="thorn" unicode="&#xfe;" 
d="M255 307l-54 -253c30 -20 63 -30 103 -30c101 0 187 85 208 182c18 85 -12 178 -107 178c-52 0 -114 -34 -150 -77zM312 573l-45 -212c45 33 93 59 145 59c119 0 165 -104 142 -215c-26 -120 -133 -217 -257 -217c-39 0 -73 9 -104 26l-39 -182h98l-7 -36h-199l7 36h62
l152 716c-29 -6 -49 -14 -79 -15l2 35c28 1 64 6 90 31c8 7 14 13 25 13c14 0 10 -25 7 -39z" />
    <glyph glyph-name="threeeighths" unicode="&#x215c;" 
d="M561 629l23 -16l-411 -640l-23 16zM451 -12c-52 0 -104 36 -92 93c9 43 47 74 88 84c-29 16 -48 46 -40 83c11 54 70 76 116 76c47 0 95 -22 84 -76c-8 -37 -41 -67 -76 -82c37 -11 61 -42 52 -85c-12 -58 -80 -93 -132 -93zM517 296c-30 0 -68 -13 -75 -49
c-9 -40 21 -56 50 -69c35 13 71 29 80 69c7 36 -24 49 -55 49zM485 148c-36 0 -81 -22 -90 -64c-9 -40 25 -68 62 -68s83 28 92 68c9 42 -28 64 -64 64zM97 301l18 25c22 -14 53 -22 82 -22c45 0 85 21 95 70c10 45 -12 70 -56 70h-27l6 28h19c33 0 66 11 74 49
c8 37 -8 63 -45 63c-14 0 -29 -5 -42 -13c-4 -18 -21 -40 -40 -40c-10 0 -14 8 -13 17c5 19 40 64 108 64c50 0 78 -39 67 -88c-6 -31 -22 -45 -48 -64l1 -1c27 -25 41 -38 32 -84c-15 -67 -75 -99 -137 -99c-33 0 -70 7 -94 25z" />
    <glyph glyph-name="threequarters" unicode="&#xbe;" 
d="M568 629l23 -16l-411 -640l-23 16zM538 227h35l-24 -114h46l-6 -28h-46l-12 -57h46l-6 -28h-135l6 28h54l12 57h-161l6 28c61 74 120 151 160 236l31 -9c-39 -82 -98 -156 -158 -227h128zM92 301l18 25c22 -14 53 -22 82 -22c45 0 85 21 95 70c10 45 -12 70 -56 70h-27
l6 28h19c33 0 66 11 74 49c8 37 -8 63 -45 63c-14 0 -29 -5 -42 -13c-4 -18 -21 -40 -40 -40c-10 0 -14 8 -13 17c5 19 40 64 108 64c50 0 78 -39 67 -88c-6 -31 -22 -45 -48 -64l1 -1c27 -25 41 -38 32 -84c-15 -67 -75 -99 -137 -99c-33 0 -70 7 -94 25z" />
    <glyph glyph-name="threesuperior" unicode="&#xb3;" 
d="M257 301l18 25c22 -14 53 -22 82 -22c45 0 85 21 95 70c10 45 -12 70 -56 70h-27l6 28h19c33 0 66 11 74 49c8 37 -8 63 -45 63c-14 0 -29 -5 -42 -13c-4 -18 -21 -40 -40 -40c-10 0 -14 8 -13 17c5 19 40 64 108 64c50 0 78 -39 67 -88c-6 -31 -22 -45 -48 -64l1 -1
c27 -25 41 -38 32 -84c-15 -67 -75 -99 -137 -99c-33 0 -70 7 -94 25z" />
    <glyph glyph-name="trademark" unicode="&#x2122;" 
d="M272 300h-139l6 28h52l52 244h-34c-24 0 -31 -8 -37 -36l-8 -35h-28l22 99h217l-22 -99h-27l8 35c6 28 3 36 -22 36h-34l-52 -244h52zM660 572l-52 -244h32l-6 -28h-104l6 28h37l49 231h-2l-108 -175l-35 171h-2l-48 -227h38l-6 -28h-99l6 28h33l52 244h-33l6 28h81
l23 -137l83 137h87l-6 -28h-32z" />
    <glyph glyph-name="twosuperior" unicode="&#xb2;" 
d="M457 346l28 -7l-39 -57h-198l6 28l17 15c53 47 175 134 189 203c7 33 -17 56 -49 56c-19 0 -38 -7 -55 -28c-3 -16 -16 -36 -36 -36c-10 0 -13 8 -11 17c10 47 68 75 109 75c47 0 88 -31 78 -82c-9 -40 -35 -74 -67 -103l-133 -117h134z" />
    <glyph glyph-name="uacute" unicode="&#xfa;" 
d="M433 0l7 34c-58 -27 -118 -46 -177 -46c-86 0 -126 50 -101 167l46 219c-29 -6 -49 -14 -79 -15l2 35c28 1 64 6 90 31c8 7 14 13 25 13c14 0 10 -25 7 -39l-49 -228c-24 -113 1 -147 72 -147c57 0 117 23 172 48l64 302c-29 -6 -49 -14 -79 -15l2 35c28 1 64 6 90 31
c8 7 14 13 25 13c14 0 10 -25 7 -39l-77 -363h81l-8 -36h-120zM544 645l28 -45l-215 -127l-17 30z" />
    <glyph glyph-name="ucircumflex" unicode="&#xfb;" 
d="M433 0l7 34c-58 -27 -118 -46 -177 -46c-86 0 -126 50 -101 167l46 219c-29 -6 -49 -14 -79 -15l2 35c28 1 64 6 90 31c8 7 14 13 25 13c14 0 10 -25 7 -39l-49 -228c-24 -113 1 -147 72 -147c57 0 117 23 172 48l64 302c-29 -6 -49 -14 -79 -15l2 35c28 1 64 6 90 31
c8 7 14 13 25 13c14 0 10 -25 7 -39l-77 -363h81l-8 -36h-120zM422 573l-163 -98l-18 23l196 145l134 -145l-28 -23z" />
    <glyph glyph-name="udieresis" unicode="&#xfc;" 
d="M433 0l7 34c-58 -27 -118 -46 -177 -46c-86 0 -126 50 -101 167l46 219c-29 -6 -49 -14 -79 -15l2 35c28 1 64 6 90 31c8 7 14 13 25 13c14 0 10 -25 7 -39l-49 -228c-24 -113 1 -147 72 -147c57 0 117 23 172 48l64 302c-29 -6 -49 -14 -79 -15l2 35c28 1 64 6 90 31
c8 7 14 13 25 13c14 0 10 -25 7 -39l-77 -363h81l-8 -36h-120zM262 559c6 27 32 49 59 49s45 -22 39 -49s-33 -49 -60 -49s-44 22 -38 49zM478 559c6 27 32 49 59 49s45 -22 39 -49s-33 -49 -60 -49s-44 22 -38 49z" />
    <glyph glyph-name="ugrave" unicode="&#xf9;" 
d="M433 0l7 34c-58 -27 -118 -46 -177 -46c-86 0 -126 50 -101 167l46 219c-29 -6 -49 -14 -79 -15l2 35c28 1 64 6 90 31c8 7 14 13 25 13c14 0 10 -25 7 -39l-49 -228c-24 -113 1 -147 72 -147c57 0 117 23 172 48l64 302c-29 -6 -49 -14 -79 -15l2 35c28 1 64 6 90 31
c8 7 14 13 25 13c14 0 10 -25 7 -39l-77 -363h81l-8 -36h-120zM330 645l144 -142l-29 -30l-161 127z" />
    <glyph glyph-name="underscoredbl" unicode="&#x2017;" 
d="M600 -108h-600v36h600v-36zM600 -216h-600v36h600v-36z" />
    <glyph glyph-name="yacute" unicode="&#xfd;" 
d="M139 408h188l-8 -36h-87l92 -309l202 309h-87l8 36h188l-8 -36h-62l-284 -439c-46 -71 -91 -149 -181 -149c-33 0 -69 12 -92 31l22 34c20 -17 51 -29 81 -29c60 0 105 75 134 121l50 78l-105 353h-59zM544 645l28 -45l-215 -127l-17 30z" />
    <glyph glyph-name="ydieresis" unicode="&#xff;" 
d="M139 408h188l-8 -36h-87l92 -309l202 309h-87l8 36h188l-8 -36h-62l-284 -439c-46 -71 -91 -149 -181 -149c-33 0 -69 12 -92 31l22 34c20 -17 51 -29 81 -29c60 0 105 75 134 121l50 78l-105 353h-59zM262 559c6 27 32 49 59 49s45 -22 39 -49s-33 -49 -60 -49
s-44 22 -38 49zM478 559c6 27 32 49 59 49s45 -22 39 -49s-33 -49 -60 -49s-44 22 -38 49z" />
    <glyph glyph-name="zcaron" unicode="&#x17e;" 
d="M218 408h351l-8 -35l-402 -337h234c61 0 62 0 92 80l6 18h36l-45 -134h-381l9 41l397 331h-194c-75 0 -70 -7 -96 -77l-7 -19h-37zM416 545l163 98l18 -23l-196 -145l-134 145l28 23z" />
    <glyph glyph-name="zeroslash" 
d="M550 547l58 69l27 -20l-69 -82c21 -58 14 -142 0 -208c-49 -231 -162 -318 -267 -318c-55 0 -92 23 -119 65l-61 -74l-27 20l72 87c-21 61 -13 145 2 214c49 233 168 312 266 312c52 0 95 -24 118 -65zM198 126l323 387c-18 38 -50 63 -97 63c-93 0 -177 -90 -216 -276
c-13 -58 -20 -119 -10 -174zM533 475l-323 -387c17 -39 48 -64 97 -64c132 0 193 169 214 270c13 60 22 124 12 181z" />
  </font>
</defs>
</svg>
